<?xml version="1.0" standalone="no"?>
<!DOCTYPE svg PUBLIC "-//W3C//DTD SVG 1.1//EN" "http://www.w3.org/Graphics/SVG/1.1/DTD/svg11.dtd" >
<!--
2013-9-30: Created.
-->
<svg>
<metadata>
Created by iconfont
</metadata>
<defs>

<font id="iconfont" horiz-adv-x="1024" >
  <font-face
    font-family="iconfont"
    font-weight="500"
    font-stretch="normal"
    units-per-em="1024"
    ascent="896"
    descent="-128"
  />
    <missing-glyph />
    
    <glyph glyph-name="analysis-spatial" unicode="&#59196;" d="M512 802.5L149.435 593.3399999999999v-418.5L512-34.5l362.565 209.34v418.5z m285.885-227.25L512 415.05 230.615 577.86 512 740.31z m-594.45-44.055L485 368.42999999999995v-325.125l-281.565 162.54zM539 43.30499999999995v324.9l281.565 157.86v-320.175z"  horiz-adv-x="1024" />

    
    <glyph glyph-name="analysis-sql" unicode="&#58941;" d="M835.52539063-2.806640629999947H308.31347657c-35.59570313 0-64.07226563 28.87207031-64.07226563 64.07226563V588.47753906c0 35.59570313 28.87207031 64.07226563 64.07226563 64.07226563h526.81640624c35.59570313 0 64.07226563-28.87207031 64.07226563-64.07226563v-526.81640625c0.39550781-35.59570313-28.4765625-64.46777344-63.67675782-64.46777344zM308.31347657 603.50683594c-8.30566406 0-15.02929689-6.72363281-15.02929688-15.02929688v-526.81640625c0-8.30566406 6.72363281-15.02929689 15.02929688-15.02929687h526.81640624c8.30566406 0 15.02929689 6.72363281 15.02929688 15.02929687V588.47753906c0 8.30566406-6.72363281 15.02929689-15.02929688 15.02929688H308.31347657zM247.00976562 117.82324218999997c-67.63183594 0-122.60742188 54.97558594-122.60742187 122.60742187V708.71191406c0 35.59570313 28.87207031 64.07226563 64.07226563 64.07226563h468.67675781c67.63183594 0 122.60742188-54.97558594 122.60742187-122.60742188h-49.43847656c0 40.34179689-32.82714844 73.16894531-73.16894531 73.16894532H188.47460937c-8.30566406 0-15.02929689-6.72363281-15.02929687-15.02929688v-468.67675781c0-40.34179689 32.82714844-73.16894531 73.16894531-73.16894531v-48.64746094zM437.64453125 338.51660156c-28.87207031 18.984375-42.31933594 28.08105469-42.31933594 39.55078125 0 11.86523438 11.07421875 12.26074219 17.40234375 11.86523438 6.72363281-0.39550781 54.97558594-0.39550781 54.97558594-0.39550781V427.50585938H394.13867187c-12.26074219 0-36.38671875-14.23828125-43.11035156-37.17773438-4.35058594-15.8203125 1.97753906-31.24511719 3.1640625-34.40917969 1.97753906-4.74609375 5.53710938-11.86523438 15.42480469-21.75292968 26.89453125-27.68554688 56.16210938-32.03613281 59.72167969-49.43847657 0.39550781-1.58203125 1.18652345-5.93261719-1.18652344-9.88769531-3.1640625-5.14160156-10.28320313-7.11914063-15.02929688-7.11914062H350.23730469v-39.55078125s45.87890625-0.39550781 73.1689453 0 49.83398438 22.93945313 49.83398439 49.83398437-7.11914063 41.52832031-35.59570313 60.51269531zM585.16894531 431.06542969c-55.37109375 0-100.45898438-46.27441406-100.45898437-103.22753907 0-42.31933594 24.52148438-79.89257813 62.88574219-95.71289062l13.84277344 33.61816406c-24.52148438 10.28320313-40.73730469 34.8046875-40.7373047 62.49023438 0 36.78222656 28.87207031 66.84082031 64.46777344 66.84082031s64.46777344-30.05859375 64.46777344-66.84082031c0-27.68554688-16.21582031-51.81152345-39.94628906-62.09472657v35.99121094h-35.99121094v-117.46582031h35.99121094v43.50585938c45.08789063 11.46972656 76.33300781 52.20703125 76.33300781 100.06347656-0.39550781 56.55761719-45.48339844 102.83203125-100.85449219 102.83203125zM757.21484375 265.74316406c-11.07421875 0-20.17089844 9.09667969-20.17089844 20.17089844V427.50585938h-35.99121093v-141.59179688c0-30.84960938 25.3125-56.16210938 56.16210937-56.16210938h36.38671875v35.99121094H757.21484375z"  horiz-adv-x="1024" />

    
    <glyph glyph-name="analysis-fields" unicode="&#59195;" d="M788.85546875-11.5078125H235.14453125c-43.50585938 0-79.1015625 35.59570313-79.1015625 79.10156249V700.40625001c0 43.50585938 35.59570313 79.1015625 79.1015625 79.10156249h553.7109375c43.50585938 0 79.1015625-35.59570313 79.1015625-79.10156251v-632.8125c0-43.50585938-35.59570313-79.1015625-79.1015625-79.10156249z m0 711.91406249H235.14453125v-632.8125h553.7109375V700.40625001zM630.65234375 542.203125H393.34765625c-23.73046875 0-39.55078125-15.8203125-39.55078125-39.55078125s15.8203125-39.55078125 39.55078125-39.55078125h79.1015625v-197.75390625c0-23.73046875 15.8203125-39.55078125 39.55078125-39.55078125s39.55078125 15.8203125 39.55078125 39.55078125V463.1015625h79.1015625c23.73046875 0 39.55078125 15.8203125 39.55078125 39.55078125s-15.8203125 39.55078125-39.55078125 39.55078125z"  horiz-adv-x="1024" />

    
    <glyph glyph-name="shape-hand-draw" unicode="&#58907;" d="M702.932 118.41600000000005c-11.692 3.161-23.743-3.758-26.903-15.45-3.165-11.698 3.758-23.744 15.451-26.903 73.027-19.747 105.712-47.546 105.712-66.333 0-14.494-19.804-37.052-75.398-56.907-55.701-19.895-130.205-30.845-209.791-30.845-79.586 0-154.099 10.95-209.799 30.845-55.593 19.855-75.396 42.413-75.396 56.907 0 18.793 32.702 46.602 105.761 66.348 11.698 3.161 18.618 15.201 15.456 26.899-3.159 11.692-15.199 18.617-26.897 15.455-89.119-24.084-138.198-62.687-138.198-108.702 0-26.869 17.359-47.165 31.924-59.459 17.477-14.762 41.905-27.805 72.594-38.766 60.318-21.541 140.063-33.407 224.549-33.407 84.493 0 164.238 11.872 224.556 33.407 30.689 10.961 55.115 24.005 72.595 38.766 14.564 12.295 31.924 32.59 31.924 59.459 0 46-49.056 84.603-138.137 108.686v0zM422.048 69.27499999999998c23.419-26.842 56.222-42.223 90.118-42.223h0.005c34.028 0 66.802 15.506 90.08 42.569 7.059 7.696 67.087 73.789 127.916 160.351 88.146 125.43 132.837 229.369 132.837 308.923 0 47.367-9.283 93.344-27.597 136.64-17.684 41.803-42.986 79.343-75.212 111.563-32.219 32.218-69.751 57.526-111.554 75.202-43.302 18.315-89.278 27.603-136.639 27.603-47.367 0-93.344-9.289-136.641-27.603-41.802-17.678-79.342-42.985-111.561-75.202-32.219-32.226-57.526-69.759-75.202-111.563-18.315-43.297-27.603-89.273-27.603-136.64 0-79.552 44.724-183.524 132.929-309.029 61.247-87.146 121.682-153.568 128.124-160.59v0zM375.908 548.71c0 77.421 62.989 140.405 140.402 140.405 77.421 0 140.404-62.986 140.404-140.405 0-77.415-62.982-140.404-140.404-140.404-77.414 0-140.402 62.989-140.402 140.404v0zM375.908 548.71z"  horiz-adv-x="1024" />

    
    <glyph glyph-name="shape-circle" unicode="&#59332;" d="M858.3 584.8C894 523.5 912 456.6 912 384s-17.9-139.5-53.7-200.8C822.5 122 774 73.39999999999998 712.8 37.700000000000045S584.6-16 512-16s-139.5 17.9-200.8 53.7c-61.2 35.7-109.7 84.2-145.6 145.6C129.9 244.5 112 311.4 112 384c0 72.5 17.9 139.4 53.7 200.8 35.7 61.2 84.2 109.7 145.6 145.6C372.5 766 439.4 784 512 784c72.5 0 139.4-17.9 200.8-53.7C774 694.5 822.5 646 858.3 584.8z m-204.1 44.4c-43.4 25.3-90.8 38-142.2 38s-98.8-12.7-142.2-38-77.8-59.7-103.1-103.1c-25.3-43.4-38-90.8-38-142.2s12.7-98.8 38-142.2c25.3-43.4 59.7-77.8 103.1-103.1 43.4-25.3 90.8-38 142.2-38s98.8 12.7 142.2 38c43.4 25.3 77.8 59.7 103.1 103.1 25.3 43.4 38 90.8 38 142.2s-12.7 98.8-38 142.2c-25.4 43.4-59.8 77.8-103.1 103.1z"  horiz-adv-x="1024" />

    
    <glyph glyph-name="shape-text" unicode="&#59192;" d="M166.00791168 728.52438354v-234.60102081l30.51280975 1.00421906c10.50567627 85.59036255 79.25605774 143.98956299 118.34335328 153.72276306 39.16454316 9.73320007 114.55821992-0.84972382 114.55821991-0.84972382s-1.00421906-482.95211792-1.00421905-516.94107056c0-34.06620026-45.80783844-48.66600037-45.80783845-48.66600037l-61.02561951-1.00421904-0.92697144-42.79518128h380.9080124v41.79096222h-69.6773529c-31.51702881 2.93540955-50.51994323 43.79940034-50.51994325 43.79940032l0.84972383 528.75995638s47.73902893 8.72898102 116.48941039-3.93962862c68.75038147-12.66860962 126.91783906-157.66239167 126.91783906-157.66239166h30.51280975V728.52438354H166.00791168z"  horiz-adv-x="1024" />

    
    <glyph glyph-name="shape-rectangle" unicode="&#59194;" d="M815.7849815 604.93453212v-441.86906424h-607.569963V604.93453212h607.569963m88.37381181 110.46726541H119.84120669a22.0934536 22.0934536 0 0 1-22.0934536-22.09345359v-618.61668788a22.0934536 22.0934536 0 0 1 22.0934536-22.09345359h784.31758662a22.0934536 22.0934536 0 0 1 22.0934536 22.09345359V693.30834394a22.0934536 22.0934536 0 0 1-22.0934536 22.09345359z"  horiz-adv-x="1024" />

    
    <glyph glyph-name="account-info" unicode="&#58905;" d="M1015.808 831.488q62.464 0 99.84-31.744t37.376-96.256l0-568.32q0-27.648-10.24-52.224t-28.16-43.008-41.984-29.184-50.688-10.752l-892.928 0q-26.624 0-50.176 10.24t-40.96 27.136-27.648 39.424-10.24 48.128l0 580.608q0 55.296 33.792 90.624t95.232 35.328l886.784 0zM287.744 642.048q-19.456 0-36.864-7.168t-30.72-19.968-20.992-30.72-7.68-38.4 7.68-37.888 20.992-30.72 30.72-20.992 36.864-7.68q21.504 0 39.424 7.68t30.72 20.992 20.48 30.72 7.68 37.888q0 41.984-27.648 69.12t-70.656 27.136zM448.512 287.744q0 19.456-7.68 37.376t-20.48 30.72-30.72 20.48-37.376 7.68l-128 0q-39.936 0-67.584-28.16t-27.648-68.096l0-4.096 0-92.16 319.488 0 0 92.16 0 4.096zM923.648 186.36800000000005q20.48 0 30.208 10.24t9.728 24.576-11.264 25.088-31.744 10.752l-305.152 0q-20.48 0-30.72-10.752t-10.24-25.088 10.24-24.576 29.696-10.24l309.248 0zM924.672 318.46400000000006q20.48 0 29.696 10.24t9.216 24.576q0 15.36-8.704 25.6t-29.184 10.24l-313.344 0q-20.48 0-29.696-10.24t-9.216-25.6q0-14.336 8.704-24.576t29.184-10.24l313.344 0zM925.696 448.512q15.36 0 26.624 10.24t11.264 24.576-11.264 23.04-26.624 8.704l-207.872 0q-15.36 0-26.112-8.704t-10.752-23.04 10.752-24.576 26.112-10.24l207.872 0z"  horiz-adv-x="1154" />

    
    <glyph glyph-name="add-map" unicode="&#58914;" d="M526.925944 785.476791c-212.498742 0-384.763131-172.264389-384.763131-384.763131s172.264389-384.763131 384.763131-384.763131 384.763131 172.264389 384.763131 384.763131S739.424686 785.476791 526.925944 785.476791zM786.320763 382.55202199999997c0-10.737552-8.705266-19.442818-19.442818-19.442818L564.5304 363.109204l0-202.347544c0-10.737552-8.705266-19.442818-19.442818-19.442818l-36.323277 0c-10.737552 0-19.442818 8.705266-19.442818 19.442818L489.321488 363.109204l-202.348568 0c-10.737552 0-19.442818 8.705266-19.442818 19.442818l0 36.323277c0 10.737552 8.705266 19.442818 19.442818 19.442818l202.347544 0L489.320465 640.665661c0 10.737552 8.705266 19.442818 19.442818 19.442818l36.323277 0c10.737552 0 19.442818-8.705266 19.442818-19.442818l0-202.347544L766.876921 438.318116c10.737552 0 19.442818-8.705266 19.442818-19.442818l0-36.323277L786.320763 382.55202199999997z"  horiz-adv-x="1024" />

    
    <glyph glyph-name="home-page" unicode="&#59191;" d="M950.560896 374.031974L586.961784 737.624946c-42.146912 42.147936-110.725824 42.147936-152.87376-0.001023L70.498122 374.031974c-31.030737-31.03176-27.40721-55.600319-22.484084-67.487044 4.922103-11.881608 19.732413-31.818683 63.617923-31.818683l91.201142 0 0-104.237039 0.155543 0 0-120.640638c0-26.752294 21.765723-48.514947 48.516993-48.514947l148.922774 0c26.752294 0 48.516993 21.763676 48.516993 48.514947L448.945407 170.48920799999996l117.470435 0 0-120.640638c0-26.752294 21.765723-48.514947 48.51904-48.514947l148.920728 0c26.755364 0 48.521087 21.763676 48.520063 48.497551L812.559868 274.727271l96.868211 0c43.884486 0 58.694797 19.936051 63.617923 31.818683C977.968106 318.431655 981.592656 343.000214 950.560896 374.031974zM909.42808 320.46598800000004L792.819269 320.46598800000004c-1.354857 0-2.680039-0.12382-3.970428-0.349971-12.258185-0.435928-22.071691-10.499122-22.081924-22.8668l-0.201591-247.400646c0-1.490957-1.215688-2.704598-2.707668-2.704598L614.935905 47.14397199999996c-1.493004 0-2.706645 1.213641-2.706645 2.704598l0 166.450986L403.134035 216.29955700000005l0-166.450986c0-1.490957-1.214664-2.704598-2.705622-2.704598L251.505639 47.14397199999996c-1.490957 0-2.705622 1.213641-2.705622 2.704598l0 166.450986-0.156566 0 0 81.510432c0 12.649088-10.254551 22.906709-22.906709 22.906709-1.215688 0-2.408863-0.098237-3.571339-0.279363-0.369414 0.01842-0.74292 0.027629-1.11745 0.027629L111.631962 320.464965c-12.338003 0-18.735713 2.350534-21.00029 3.733021 0.623193 2.579755 3.486404 8.765641 12.21009 17.488303l363.590925 363.592972c24.313755 24.312732 63.872726 24.312732 88.186482 0l363.599112-363.592972c8.723685-8.721639 11.585873-14.907525 12.21009-17.488303C928.16277 322.81652199999996 921.764036 320.46598800000004 909.42808 320.46598800000004z"  horiz-adv-x="1024" />

    
    <glyph glyph-name="my-map" unicode="&#59256;" d="M888.36363653 140.18181826a8.18181826 8.18181826 0 0 0-4.5-7.32272695l-233.59090958-119.12727305a8.18181826 8.18181826 0 0 0-7.56818174 0.04090869l-255.35454521 135.40909131a73.63636348 73.63636348 0 0 1-67.90909131 0.57272695L135.63636347 56.31818174V431.94545479l66.96818174 31.90909042a32.72727305 32.72727305 0 1 1-28.1454539 59.11363653l-81-38.57727305A40.90909131 40.90909131 0 0 1 70.18181826 447.40909131v-431.18181826a40.90909131 40.90909131 0 0 1 59.44090869-36.40909131l219.51818174 111.55909131a8.18181826 8.18181826 0 0 0 7.52727305-0.08181826l255.39545479-135.40909132a73.63636348 73.63636348 0 0 1 67.90909042-0.49090868l233.67272784 119.12727216a73.63636348 73.63636348 0 0 1 40.17272695 65.57727305V536.18181826a40.90909131 40.90909131 0 0 1-54.28636348 38.65909043l-73.63636347-25.48636348a32.72727305 32.72727305 0 0 1 21.3954539-61.85454521l41.07272784 14.23636347v-361.55454521zM570.37727305 182.72727305C703.00454521 355.24090868999997 769.72727305 481.85454521 769.72727305 568.09090869a257.72727305 257.72727305 0 0 1-515.4545461 0c0-86.23636348 66.72272695-212.85 199.35-385.36363564a73.63636348 73.63636348 0 0 1 116.7545461 0z m-51.87272784 39.92727216a8.18181826 8.18181826 0 0 0-13.00909042 0C381.37727305 384.08181826 319.72727305 501.08181826 319.72727305 568.09090869a192.27272695 192.27272695 0 0 0 384.5454539 0c0-67.00909131-61.65-184.00909131-185.76818174-345.43636348zM512 435.38181826a132.70909131 132.70909131 0 1 1 0 265.41818174 132.70909131 132.70909131 0 0 1 0-265.41818174z m0 65.45454522a67.25454521 67.25454521 0 1 0 0 134.50909131 67.25454521 67.25454521 0 0 0 0-134.50909132z"  horiz-adv-x="1024" />

    
    <glyph glyph-name="zoominput" unicode="&#59189;" d="M368 832L176 832 80 832c-8.836 0-16-7.164-16-16l0-96 0-192c0-8.836 7.164-16 16-16l96 0c8.836 0 16 7.164 16 16L192 704l176 0c8.836 0 16 7.164 16 16L384 816C384 824.836 376.836 832 368 832zM944 832l-96 0L656 832c-8.836 0-16-7.164-16-16l0-96c0-8.836 7.164-16 16-16l176 0 0-176c0-8.836 7.164-16 16-16l96 0c8.836 0 16 7.164 16 16L960 720 960 816C960 824.836 952.836 832 944 832zM368 64L192 64 192 240c0 8.836-7.164 16-16 16L80 256c-8.836 0-16-7.164-16-16l0-192 0-96c0-8.836 7.164-16 16-16l96 0 192 0c8.836 0 16 7.164 16 16l0 96C384 56.83600000000001 376.836 64 368 64zM944 256l-96 0c-8.836 0-16-7.164-16-16l0-176L656 64c-8.836 0-16-7.164-16-16l0-96c0-8.836 7.164-16 16-16l192 0 96 0c8.836 0 16 7.164 16 16l0 96L960 240C960 248.836 952.836 256 944 256z"  horiz-adv-x="1024" />

    
    <glyph glyph-name="shape-tile-copy" unicode="&#61256;" d="M984.897761 825.765041L673.616743 895.491989h-12.451241L356.110104 827.010165 51.054705 895.491989a29.260416 29.260416 0 0 1-26.147605-8.093306 36.108598 36.108598 0 0 1-11.206117-26.770168v-884.660655a33.61835 33.61835 0 0 1 24.902481-33.61835l311.281019-69.104386h12.451241l305.055398 67.859262 305.055398-67.859262h6.225621a29.260416 29.260416 0 0 1 19.921985 8.093307 36.108598 36.108598 0 0 1 11.206117 26.770167V791.524129a34.240912 34.240912 0 0 1-24.902482 34.240912z m-37.353722-435.793426l-249.024815 55.408021v373.537223l249.024815-55.408022z m-311.281019 55.408021L387.238205 391.216739v373.537223l249.024815 55.408021zM324.982002 763.508837v-373.537222l-249.024815 56.653145v373.537223zM75.957187 376.27525l249.024815-55.408021v-373.537222l-249.024815 55.408021z m311.281018-55.408021l249.024815 55.408021v-373.537222l-249.024815-55.408021z m311.281019-316.884077v373.537222l249.024815-55.408021v-373.537222z"  horiz-adv-x="1024" />

    
    <glyph glyph-name="shape-tile-copy1" unicode="&#61257;" d="M984.897761 825.765041L673.616743 895.491989h-12.451241L356.110104 827.010165 51.054705 895.491989a29.260416 29.260416 0 0 1-26.147605-8.093306 36.108598 36.108598 0 0 1-11.206117-26.770168v-884.660655a33.61835 33.61835 0 0 1 24.902481-33.61835l311.281019-69.104386h12.451241l305.055398 67.859262 305.055398-67.859262h6.225621a29.260416 29.260416 0 0 1 19.921985 8.093307 36.108598 36.108598 0 0 1 11.206117 26.770167V791.524129a34.240912 34.240912 0 0 1-24.902482 34.240912z m-37.353722-435.793426l-249.024815 55.408021v373.537223l249.024815-55.408022z m-311.281019 55.408021L387.238205 391.216739v373.537223l249.024815 55.408021zM324.982002 763.508837v-373.537222l-249.024815 56.653145v373.537223zM75.957187 376.27525l249.024815-55.408021v-373.537222l-249.024815 55.408021z m311.281018-55.408021l249.024815 55.408021v-373.537222l-249.024815-55.408021z m311.281019-316.884077v373.537222l249.024815-55.408021v-373.537222z"  horiz-adv-x="1024" />

    
    <glyph glyph-name="shape-tile-copy2" unicode="&#61258;" d="M984.897761 825.765041L673.616743 895.491989h-12.451241L356.110104 827.010165 51.054705 895.491989a29.260416 29.260416 0 0 1-26.147605-8.093306 36.108598 36.108598 0 0 1-11.206117-26.770168v-884.660655a33.61835 33.61835 0 0 1 24.902481-33.61835l311.281019-69.104386h12.451241l305.055398 67.859262 305.055398-67.859262h6.225621a29.260416 29.260416 0 0 1 19.921985 8.093307 36.108598 36.108598 0 0 1 11.206117 26.770167V791.524129a34.240912 34.240912 0 0 1-24.902482 34.240912z m-37.353722-435.793426l-249.024815 55.408021v373.537223l249.024815-55.408022z m-311.281019 55.408021L387.238205 391.216739v373.537223l249.024815 55.408021zM324.982002 763.508837v-373.537222l-249.024815 56.653145v373.537223zM75.957187 376.27525l249.024815-55.408021v-373.537222l-249.024815 55.408021z m311.281018-55.408021l249.024815 55.408021v-373.537222l-249.024815-55.408021z m311.281019-316.884077v373.537222l249.024815-55.408021v-373.537222z"  horiz-adv-x="1024" />

    
    <glyph glyph-name="shape-tile" unicode="&#59190;" d="M984.897761 825.765041L673.616743 895.491989h-12.451241L356.110104 827.010165 51.054705 895.491989a29.260416 29.260416 0 0 1-26.147605-8.093306 36.108598 36.108598 0 0 1-11.206117-26.770168v-884.660655a33.61835 33.61835 0 0 1 24.902481-33.61835l311.281019-69.104386h12.451241l305.055398 67.859262 305.055398-67.859262h6.225621a29.260416 29.260416 0 0 1 19.921985 8.093307 36.108598 36.108598 0 0 1 11.206117 26.770167V791.524129a34.240912 34.240912 0 0 1-24.902482 34.240912z m-37.353722-435.793426l-249.024815 55.408021v373.537223l249.024815-55.408022z m-311.281019 55.408021L387.238205 391.216739v373.537223l249.024815 55.408021zM324.982002 763.508837v-373.537222l-249.024815 56.653145v373.537223zM75.957187 376.27525l249.024815-55.408021v-373.537222l-249.024815 55.408021z m311.281018-55.408021l249.024815 55.408021v-373.537222l-249.024815-55.408021z m311.281019-316.884077v373.537222l249.024815-55.408021v-373.537222z"  horiz-adv-x="1024" />

    
    <glyph glyph-name="clouddown" unicode="&#59184;" d="M662.4 236.79999999999995c-12.8 12.8-32 12.8-44.8 0L544 163.20000000000005V438.4c0 17.6-14.4 32-32 32s-32-14.4-32-32v-275.2l-73.6 73.6c-12.8 12.8-32 12.8-44.8 0-12.8-12.8-12.8-32 0-44.8l150.4-150.4 150.4 150.4c12.8 12.8 12.8 32 0 44.8zM784 566.4h-8c-43.2 94.4-137.6 160-248 160-136 0-249.6-100.8-268.8-232-16 4.8-33.6 8-51.2 8-97.6 0-176-78.4-176-176s78.4-176 176-176h104c-16 17.6-24 40-24 64 0 25.6 9.6 49.6 28.8 67.2 17.6 17.6 41.6 28.8 67.2 28.8 11.2 0 22.4-1.6 32-4.8v132.8c0 52.8 43.2 96 96 96s96-43.2 96-96v-132.8c9.6 3.2 20.8 4.8 32 4.8 25.6 0 49.6-9.6 67.2-28.8 17.6-17.6 28.8-41.6 28.8-67.2 0-24-8-46.4-24-64H784c115.2 0 208 92.8 208 208s-92.8 208-208 208z"  horiz-adv-x="1024" />

    
    <glyph glyph-name="analysis-autocorrelation" unicode="&#59150;" d="M284.672 271.36c12.288 0 20.48-8.192 20.48-20.48s-8.192-20.48-20.48-20.48h-90.112c-45.056 0-81.92 36.864-81.92 81.92v327.68c0 45.056 36.864 81.92 81.92 81.92h389.12c45.056 0 81.92-36.864 81.92-81.92v-327.68c0-45.056-36.864-81.92-81.92-81.92h-102.4c-12.288 0-20.48 8.192-20.48 20.48s8.192 20.48 20.48 20.48h100.352c22.528 0 40.96 18.432 40.96 40.96v327.68c0 22.528-18.432 40.96-40.96 40.96h-389.12c-22.528 0-40.96-18.432-40.96-40.96v-327.68c0-22.528 18.432-40.96 40.96-40.96h92.16z m245.76 245.76c12.288 0 20.48-8.192 20.48-20.48s-8.192-20.48-20.48-20.48h-90.112c-22.528 0-40.96-18.432-40.96-40.96v-307.2c0-22.528 18.432-40.96 40.96-40.96h389.12c22.528 0 40.96 18.432 40.96 40.96v307.2c0 22.528-18.432 40.96-40.96 40.96h-102.4c-12.288 0-20.48 8.192-20.48 20.48s8.192 20.48 20.48 20.48h100.352c45.056 0 81.92-36.864 81.92-81.92v-307.2c0-45.056-36.864-81.92-81.92-81.92h-389.12c-45.056 0-81.92 36.864-81.92 81.92v307.2c0 45.056 36.864 81.92 81.92 81.92h92.16z"  horiz-adv-x="1024" />

    
    <glyph glyph-name="analysis-projectsystem" unicode="&#59138;" d="M896.32 546.34666667c-21.01333333 49.70666667-51.09333333 94.29333333-89.38666667 132.58666666-38.29333333 38.29333333-82.88 68.37333333-132.58666666 89.38666667C622.93333333 790.08 568.32 801.06666667 512 801.06666667s-110.93333333-10.98666667-162.34666667-32.74666667c-49.70666667-21.01333333-94.29333333-51.09333333-132.58666666-89.38666667s-68.37333333-82.88-89.38666667-132.58666666C105.92 494.93333333 94.93333333 440.32 94.93333333 384s10.98666667-110.93333333 32.74666667-162.34666667c21.01333333-49.70666667 51.09333333-94.29333333 89.38666667-132.58666666 38.29333333-38.29333333 82.88-68.37333333 132.58666666-89.38666667C401.06666667-22.08000000000004 455.68-33.06666667000002 512-33.06666667000002s110.93333333 10.98666667 162.34666667 32.74666667c49.70666667 21.01333333 94.29333333 51.09333333 132.58666666 89.38666667 38.29333333 38.29333333 68.37333333 82.88 89.38666667 132.58666666C918.08 273.06666667 929.06666667 327.67999999999995 929.06666667 384s-10.98666667 110.93333333-32.74666667 162.34666667z m-368 0.85333333c48.74666667 1.28 96.96 8.42666667 143.57333333 21.01333333 0.85333333 0.21333333 1.70666667-0.21333333 1.92-1.06666666 17.70666667-53.33333333 27.73333333-109.33333333 29.44-166.29333334 0-0.85333333-0.74666667-1.6-1.6-1.6H528.32c-0.85333333 0-1.6 0.74666667-1.6 1.6V545.6c0 0.85333333 0.64 1.49333333 1.6 1.6z m-1.6 32V753.49333333c0 0.96 0.74666667 1.6 1.70666667 1.6 14.82666667-0.64 29.44-2.13333333 43.84-4.48 0.42666667-0.10666667 0.74666667-0.32 0.96-0.53333333 37.44-45.86666667 67.30666667-96.85333333 88.96-151.04 0.32-0.85333333-0.10666667-1.92-1.06666667-2.13333333-43.09333333-11.41333333-87.68-17.92-132.69333333-19.2-0.96-0.10666667-1.70666667 0.53333333-1.70666667 1.49333333z m-32-1.6c-44.69333333 1.28-88.85333333 7.78666667-131.62666667 19.2-0.96 0.21333333-1.38666667 1.28-1.06666666 2.13333333 21.65333333 54.29333333 51.52 105.28 88.85333333 151.14666667 0.21333333 0.32 0.64 0.53333333 0.96 0.53333333 14.08 2.34666667 28.37333333 3.84 42.88 4.48 0.96 0 1.70666667-0.64 1.70666667-1.6V579.2c-0.10666667-0.85333333-0.85333333-1.6-1.70666667-1.6z m1.6-32v-144.85333333c0-0.85333333-0.74666667-1.6-1.6-1.6H322.45333333c-0.85333333 0-1.6 0.74666667-1.6 1.6 1.70666667 56.85333333 11.73333333 112.85333333 29.44 166.29333333 0.32 0.85333333 1.06666667 1.28 1.92 1.06666667 46.29333333-12.58666667 94.18666667-19.62666667 142.50666667-21.01333334 0.96 0.10666667 1.6-0.64 1.6-1.49333333zM288.85333333 399.25333333H142.50666667c-0.96 0-1.6 0.74666667-1.6 1.70666667 3.73333333 82.02666667 34.13333333 157.12 82.66666666 216.96 0.53333333 0.64 1.28 0.74666667 2.02666667 0.42666667 30.29333333-16.10666667 61.86666667-29.65333333 94.4-40.42666667 0.85333333-0.32 1.28-1.17333333 0.96-2.02666667-18.66666667-56.42666667-28.90666667-115.2-30.61333333-175.14666666 0-0.85333333-0.64-1.49333333-1.49333334-1.49333334z m1.49333334-32c1.6-59.94666667 11.84-118.72 30.61333333-175.14666666 0.32-0.85333333-0.21333333-1.70666667-0.96-2.02666667-32.53333333-10.77333333-64.10666667-24.21333333-94.4-40.42666667-0.64-0.32-1.49333333-0.21333333-2.02666667 0.42666667-48.64 59.84-79.04 134.93333333-82.66666666 216.96 0 0.96 0.64 1.70666667 1.6 1.70666667h146.24c0.96 0 1.6-0.64 1.6-1.49333334z m32.10666666 1.49333334h172.26666667c0.85333333 0 1.6-0.74666667 1.6-1.6v-144.85333334c0-0.85333333-0.64-1.6-1.6-1.6-48.42666667-1.38666667-96.32-8.42666667-142.61333333-21.01333333-0.85333333-0.21333333-1.70666667 0.21333333-1.92 1.06666667-17.70666667 53.33333333-27.73333333 109.33333333-29.44 166.29333333 0 0.96 0.74666667 1.70666667 1.70666666 1.70666667z m173.86666667-179.94666667v-174.29333333c0-0.96-0.74666667-1.6-1.70666667-1.6-14.50666667 0.64-28.8 2.13333333-42.88 4.48-0.42666667 0.10666667-0.74666667 0.32-0.96 0.53333333-37.33333333 45.86666667-67.2 96.85333333-88.85333333 151.04-0.32 0.85333333 0.10666667 1.92 1.06666667 2.13333333 42.88 11.41333333 87.04 17.81333333 131.73333333 19.2 0.85333333 0.10666667 1.6-0.64 1.6-1.49333333z m32 1.6c45.01333333-1.28 89.49333333-7.78666667 132.69333333-19.2 0.96-0.21333333 1.38666667-1.28 1.06666667-2.13333333-21.65333333-54.18666667-51.52-105.17333333-88.96-151.04-0.21333333-0.32-0.64-0.53333333-0.96-0.53333334-14.4-2.34666667-29.01333333-3.84-43.84-4.48-0.96 0-1.70666667 0.64-1.70666667 1.6V188.79999999999995c0.10666667 0.96 0.85333333 1.6 1.70666667 1.6z m-1.6 32V367.25333333000003c0 0.85333333 0.74666667 1.6 1.6 1.6h173.22666667c0.85333333 0 1.6-0.74666667 1.6-1.6a575.89333333 575.89333333 0 0 0-29.44-166.29333333c-0.32-0.85333333-1.06666667-1.28-1.92-1.06666667-46.61333333 12.58666667-94.82666667 19.73333333-143.57333334 21.01333334-0.85333333 0-1.49333333 0.64-1.49333333 1.49333333z m208.42666667 146.34666667h146.24c0.96 0 1.6-0.74666667 1.6-1.70666667-3.73333333-82.02666667-34.02666667-157.12-82.66666667-216.96-0.53333333-0.64-1.28-0.74666667-2.02666667-0.42666667-30.29333333 16.10666667-61.86666667 29.65333333-94.4 40.32-0.85333333 0.32-1.28 1.17333333-0.96 2.02666667 18.66666667 56.42666667 28.90666667 115.2 30.61333334 175.14666667 0.10666667 0.96 0.74666667 1.6 1.6 1.6z m-1.49333334 32c-1.6 59.94666667-11.84 118.72-30.50666666 175.14666666-0.32 0.85333333 0.21333333 1.70666667 0.96 2.02666667 32.42666667 10.77333333 64 24.21333333 94.4 40.42666667 0.64 0.32 1.49333333 0.21333333 2.02666666-0.42666667 48.64-59.84 79.04-134.93333333 82.66666667-216.96 0-0.96-0.64-1.70666667-1.6-1.70666667H735.14666667c-0.85333333 0-1.49333333 0.64-1.49333334 1.49333334z m43.2 240.53333333c-26.77333333-13.76-54.61333333-25.38666667-83.2-34.88-0.85333333-0.21333333-1.70666667 0.10666667-2.02666666 0.96-17.92 45.54666667-41.17333333 88.53333333-69.33333334 128.42666667-0.85333333 1.28 0.32 2.88 1.81333334 2.45333333 58.66666667-18.56 111.14666667-51.41333333 153.17333333-94.4 0.74666667-0.74666667 0.53333333-2.02666667-0.42666667-2.56z m-375.14666666 94.50666667c-28.26666667-39.89333333-51.41333333-82.88-69.33333334-128.42666667-0.32-0.74666667-1.17333333-1.17333333-2.02666666-0.96-28.58666667 9.38666667-56.42666667 21.01333333-83.2 34.77333333-0.96 0.53333333-1.17333333 1.81333333-0.42666667 2.56 42.13333333 42.98666667 94.50666667 75.73333333 153.17333333 94.4 1.49333333 0.53333333 2.77333333-1.17333333 1.81333334-2.34666666z m-154.56-609.06666667c26.77333333 13.76 54.61333333 25.38666667 83.2 34.88 0.85333333 0.21333333 1.70666667-0.10666667 2.02666666-0.96 17.92-45.54666667 41.17333333-88.53333333 69.33333334-128.42666667 0.85333333-1.28-0.32-2.88-1.81333334-2.45333333-58.66666667 18.56-111.14666667 51.41333333-153.17333333 94.4-0.74666667 0.74666667-0.53333333 2.13333333 0.42666667 2.56z m375.14666666-94.50666667c28.16 39.78666667 51.41333333 82.77333333 69.33333334 128.32 0.32 0.74666667 1.17333333 1.17333333 2.02666666 0.96 28.58666667-9.38666667 56.42666667-21.01333333 83.2-34.77333333 0.96-0.53333333 1.17333333-1.81333333 0.42666667-2.56-42.13333333-42.98666667-94.50666667-75.73333333-153.17333333-94.4-1.49333333-0.42666667-2.66666667 1.28-1.81333334 2.45333333z"  horiz-adv-x="1024" />

    
    <glyph glyph-name="analysis-clustering" unicode="&#59188;" d="M733.184 489.6768V701.44c0 11.0592-5.7344 21.2992-15.5648 26.624l-183.0912 105.6768c-9.4208 5.3248-21.2992 5.3248-30.72 0L320.7168 728.064c-9.4208-5.3248-15.5648-15.5648-15.5648-26.624v-211.7632c0-11.0592 5.7344-21.2992 15.5648-26.624l183.5008-105.6768c4.9152-2.8672 10.24-4.096 15.5648-4.096s10.6496 1.2288 15.5648 4.096l183.0912 105.6768c9.0112 5.7344 14.7456 15.9744 14.7456 26.624z m-61.44 18.0224l-152.3712-88.064-152.7808 88.064v176.128l152.7808 88.064L671.744 683.8272v-176.128zM463.6672 304.94719999999995l-183.0912 105.6768c-9.4208 5.3248-21.2992 5.3248-30.72 0l-183.0912-105.6768c-9.4208-5.3248-15.5648-15.5648-15.5648-26.624v-211.7632c0-11.0592 5.7344-21.2992 15.5648-26.624L249.856-65.74080000000004c4.9152-2.8672 10.24-4.096 15.5648-4.096s10.6496 1.2288 15.5648 4.096l183.0912 105.6768c9.4208 5.3248 15.5648 15.5648 15.5648 26.624v211.7632c-0.4096 10.6496-6.144 20.8896-15.9744 26.624zM417.792 84.17280000000005l-152.3712-88.064-152.3712 88.064v176.128l152.3712 88.064 152.3712-88.064v-176.128zM957.6448 304.94719999999995L774.144 410.624c-9.4208 5.3248-21.2992 5.3248-30.72 0l-183.0912-105.6768c-9.4208-5.3248-15.5648-15.5648-15.5648-26.624v-211.7632c0-11.0592 5.7344-21.2992 15.5648-26.624l183.0912-105.6768c4.9152-2.8672 10.24-4.096 15.5648-4.096s10.6496 1.2288 15.5648 4.096l183.0912 105.6768c9.4208 5.3248 15.5648 15.5648 15.5648 26.624v211.7632c-0.4096 10.6496-6.144 20.8896-15.5648 26.624z m-46.2848-220.7744l-152.3712-88.064-152.7808 88.064v176.128l152.3712 88.064 152.3712-88.064v-176.128z"  horiz-adv-x="1024" />

    
    <glyph glyph-name="analysis-sumstatistics" unicode="&#58924;" d="M182.044444 366.93333299999995a312.888889 312.888889 0 0 1 620.714667-56.888889h-364.657778V674.816A313.059556 313.059556 0 0 1 182.044444 366.990222z m312.888889-369.777777a369.777778 369.777778 0 1 0 0 739.669333V366.93333299999995h369.891556a369.834667 369.834667 0 0 0-369.777778-369.777777zM606.549333 716.686222v-238.136889h238.136889a297.528889 297.528889 0 0 1-238.136889 238.136889z m297.130667-292.295111H552.391111V775.6800000000001a351.288889 351.288889 0 0 0 351.288889-351.288889z"  horiz-adv-x="1024" />

    
    <glyph glyph-name="map-builder-analysis" unicode="&#58940;" d="M909 413H591a50 50 0 0 0-50 50V781a50 50 0 0 0 50 50h318a50 50 0 0 0 50-50v-318a50 50 0 0 0-50-50z m-10 338a20 20 0 0 1-20 20H621a20 20 0 0 1-20-20v-258a20 20 0 0 1 20-20h258a20 20 0 0 1 20 20V751zM433-63H115a50 50 0 0 0-50 50V305a50 50 0 0 0 50 50h318a50 50 0 0 0 50-50v-318a50 50 0 0 0-50-50z m-10 338a20 20 0 0 1-20 20H145a20 20 0 0 1-20-20v-258a20 20 0 0 1 20-20h258a20 20 0 0 1 20 20V275z m10 138H115a50 50 0 0 0-50 50V781a50 50 0 0 0 50 50h318a50 50 0 0 0 50-50v-318a50 50 0 0 0-50-50z m-10 338a20 20 0 0 1-20 20H145a20 20 0 0 1-20-20v-258a20 20 0 0 1 20-20h258a20 20 0 0 1 20 20V751z m312.5-396C842.919 355 930 267.919 930 160.5a193.6 193.6 0 0 0-37.252-114.469l57.391-57.391a30 30 0 0 0-42.426-42.427l-57.336 57.336A193.613 193.613 0 0 0 735.5-34C628.081-34 541 53.08100000000002 541 160.5S628.081 355 735.5 355z m0-329A134.5 134.5 0 1 1 601 160.5 134.5 134.5 0 0 1 735.5 26z"  horiz-adv-x="1024" />

    
    <glyph glyph-name="analysis-area" unicode="&#59181;" d="M251.345455 627.2l-80.058182-116.363636L512 73.07636400000001 737.978182 197.81818199999998 814.545455 597.876364 698.181818 709.818182z m649.774545 54.923636a51.2 51.2 0 0 1-15.127273-2.56l-114.269091 108.218182a54.690909 54.690909 0 0 1 0 7.912727A53.294545 53.294545 0 0 1 719.825455 849.454545a52.829091 52.829091 0 0 1-49.105455-34.443636L246.690909 737.512727a52.130909 52.130909 0 0 1-42.356364 21.876364 53.294545 53.294545 0 0 1-52.82909-53.992727 54.225455 54.225455 0 0 1 6.050909-23.272728l-73.541819-107.52-8.378181-12.101818a53.992727 53.992727 0 0 1 0-107.752727h3.490909l8.610909-10.938182 339.781818-438.225454 12.8-16.523637a54.458182 54.458182 0 0 1-2.792727-16.523636 52.596364 52.596364 0 0 1 104.96-5.818182l19.316363 10.705455 218.996364 120.785454a51.432727 51.432727 0 0 1 21.178182-4.654545 53.294545 53.294545 0 0 1 52.829091 53.992727 54.225455 54.225455 0 0 1-11.636364 33.512727l77.032727 395.636364v1.396363a53.992727 53.992727 0 0 1-19.083636 104.261819zM791.272727 200.37818200000004a53.527273 53.527273 0 0 1-43.287272-53.061818v-4.421819L535.272727 25.134545000000003l-15.825454-8.610909a50.967273 50.967273 0 0 1-40.494546 8.843637l-10.938182 13.963636L129.396364 477.090909l-5.818182 7.447273a53.294545 53.294545 0 0 1-1.629091 49.803636l5.585454 8.145455L202.472727 651.636364h1.861818a52.596364 52.596364 0 0 1 47.941819 31.650909l427.054545 77.963636a51.898182 51.898182 0 0 1 40.494546-19.781818 51.432727 51.432727 0 0 1 18.385454 3.490909L849.687273 640a55.156364 55.156364 0 0 1-1.163637-11.636364 53.992727 53.992727 0 0 1 19.083637-41.192727z"  horiz-adv-x="1024" />

    
    <glyph glyph-name="analysis-overlay" unicode="&#59180;" d="M363.645161-62.480774V235.45994199999996H65.705468V831.339328h595.880409v-297.939693h297.939693v-595.880409H363.645161z m198.626803 794.507212H165.018358v-397.253606h198.626803V533.399635h198.626803V732.026438zM860.211656 434.086745H661.584853v-198.626803H462.959074v-198.626803h397.253606V434.086745z"  horiz-adv-x="1024" />

    
    <glyph glyph-name="analysis-buffer" unicode="&#59215;" d="M377.901256 759.436133C377.901256 834.8394949999999 439.853031 896 516.326934 896c76.473904 0 138.472224-61.160505 138.472224-136.563867s-61.99832-136.563867-138.472224-136.563867c-76.427358 0-138.425678 61.253595-138.425678 136.563867z m293.70075-119.900655c0 75.403362 61.951775 136.563867 138.425679 136.563867 76.473904 0 138.425678-61.11396 138.425678-136.563867 0-75.403362-61.951775-136.563867-138.425678-136.563867-76.473904 0-138.425678 61.160505-138.425679 136.563867z m190.83567-289.697856c0 37.701681 30.906069 68.235388 69.119748 68.235389 38.213679 0 69.166294-30.533707 69.166294-68.235389 0-37.701681-30.952615-68.235388-69.166294-68.235388a68.654296 68.654296 0 0 0-69.166294 68.235388z m-121.669376-289.604765c0 37.701681 30.906069 68.235388 69.166294 68.235389 38.167134 0 69.166294-30.533707 69.166294-68.235389 0-37.701681-30.952615-68.235388-69.166294-68.235388a68.654296 68.654296 0 0 0-69.166294 68.235388z m-293.60766-119.993745c0 37.701681 30.952615 68.235388 69.166294 68.235388 38.260225 0 69.166294-30.533707 69.166294-68.235388 0-37.701681-30.906069-68.235388-69.166294-68.235388a68.654296 68.654296 0 0 0-69.166294 68.235388zM153.599526 60.23285699999997c0 37.701681 30.952615 68.235388 69.166294 68.235389 38.260225 0 69.166294-30.533707 69.166294-68.235389 0-37.701681-30.906069-68.235388-69.166294-68.235388A68.654296 68.654296 0 0 0 153.599526 60.23285699999997zM118.969834 639.535478c0 56.599067 46.452195 102.399628 103.795986 102.399628s103.795986-45.800561 103.795986-102.399628c0-56.552522-46.452195-102.399628-103.795986-102.399628s-103.795986 45.847106-103.795986 102.399628zM23.272727 349.837622c0 42.35621 34.908964 76.799721 77.870263 76.799721s77.823717-34.443511 77.823717-76.799721c0-42.402755-34.862419-76.799721-77.823717-76.79972-43.007844 0-77.870262 34.396966-77.870263 76.79972z"  horiz-adv-x="1024" />

    
    <glyph glyph-name="analysis-difference" unicode="&#59182;" d="M725 525V808H64v-660h331v-188h565V525H725z m-142 0H395v-235H206V667h377v-142z"  horiz-adv-x="1024" />

    
    <glyph glyph-name="analysis-union" unicode="&#60625;" d="M656.384 528.384V768H128v-528.384h239.616V0H896V528.384z"  horiz-adv-x="1024" />

    
    <glyph glyph-name="analysis-geometry-attribute" unicode="&#59183;" d="M174.08 568.3199999999999a153.6 153.6 0 1 0 0 307.2 153.6 153.6 0 0 0 0-307.2z m675.84 0a153.6 153.6 0 1 0 0 307.2 153.6 153.6 0 0 0 0-307.2z m0-675.84a153.6 153.6 0 1 0 0 307.2 153.6 153.6 0 0 0 0-307.2z m-675.84 0a153.6 153.6 0 1 0 0 307.2 153.6 153.6 0 0 0 0-307.2z m153.6 860.16h368.64V691.2H327.68z m0-675.84h368.64v-61.44H327.68zM204.8 568.3199999999999v-368.64H143.36V568.3199999999999z m675.84 0v-368.64H819.2V568.3199999999999z"  horiz-adv-x="1024" />

    
    <glyph glyph-name="analysis-geometrycheck" unicode="&#59185;" d="M64 703.996V0h768V256H704v-128H192V576h256V704.004c-67.884-0.005-316.124 0.01-384-0.008z m896-0.01v-128l-128 0.027v-128l-128-0.027v128H576v128h128V832.012l128 0.005v-128.003z"  horiz-adv-x="1024" />

    
    <glyph glyph-name="analysis-symdifference" unicode="&#59186;" d="M938.666667 810.666667v-597.333334h-256v-256H85.333333V554.666667h256V810.666667h597.333334z m-256-256H341.333333v-341.333334h341.333334V554.666667zM938.666667 832a21.333333 21.333333 0 0 0 21.333333-21.333333v-597.333334a21.333333 21.333333 0 0 0-21.333333-21.333333h-234.666667V-42.66666699999996a21.333333 21.333333 0 0 0-21.333333-21.333333H85.333333a21.333333 21.333333 0 0 0-21.333333 21.333333V554.666667a21.333333 21.333333 0 0 0 21.333333 21.333333h234.666667V810.666667a21.333333 21.333333 0 0 0 21.333333 21.333333h597.333334z m-618.666667-298.666667h-213.333333v-554.666666h554.666666v213.333333H341.333333a21.333333 21.333333 0 0 0-21.333333 21.333333V533.333333z m341.333333 0h-298.666666v-298.666666h298.666666v298.666666z m256 256h-554.666666v-213.333333H682.666667a21.333333 21.333333 0 0 0 21.333333-21.333333v-320h213.333333v554.666666z"  horiz-adv-x="1024" />

    
    <glyph glyph-name="analysis-project" unicode="&#59187;" d="M830.2 257.29999999999995c-26.9 0-51.7-9.2-71.3-24.5L648.6 351.29999999999995l108.2 115.5c20-16.3 45.5-26.1 73.4-26.1 64.1 0 116 51.9 116 116s-51.9 116-116 116c-45.6 0-85.1-26.3-104-64.6L313.4 746.5c3.2 10.6 4.9 21.9 4.9 33.5 0 64.1-51.9 116-116 116s-116-51.9-116-116 51.9-116 116-116c27.6 0 52.9 9.6 72.8 25.7l208.6-224.3L313 408.1c-14.8 47.1-58.7 81.2-110.7 81.2-64.1 0-116-51.9-116-116s51.9-116 116-116c39.8 0 75 20.1 95.9 50.7l190.9-64.1-186-198.5c-20 35-57.6 58.6-100.8 58.6-64.1 0-116-51.9-116-116s51.9-116 116-116c55.7 0 102.2 39.3 113.4 91.6L721.8 100c16.7-43.6 58.9-74.7 108.4-74.7 64.1 0 116 51.9 116 116s-51.9 116-116 116z m-110.7-45.4l-153.3 51.4 52.9 56.5 100.4-107.9z m9.5 288L619.3 382.79999999999995l-58.6 63L727.8 502l1.2-2.1zM327.8 696.3l386.9-129.8c-0.3-3.3-0.4-6.6-0.4-9.9 0-4.6 0.3-9.1 0.8-13.6l-186.5-62.6-200.8 215.9z m-12.4-348.8c1.2 5.5 2.1 11.1 2.5 16.9l198 66.5 73.9-79.5-68.4-73-206 69.1z m401.7-180.1c-1.8-7.9-2.8-16.2-2.9-24.6L333.4 14.899999999999977l200.5 213.9 183.2-61.4z"  horiz-adv-x="1024" />

    
    <glyph glyph-name="circle" unicode="&#58951;" d="M512 384m-491.52 0a491.52 491.52 0 1 1 983.04 0 491.52 491.52 0 1 1-983.04 0Z"  horiz-adv-x="1024" />

    
    <glyph glyph-name="casino" unicode="&#58952;" d="M1003.52 681.18528c12.36992 9.35936 20.48 24.02304 20.48 40.73472a51.2 51.2 0 1 1-102.4 0 50.9952 50.9952 0 0 1 20.48-40.73472V363.52h-184.32v-163.84h204.8v6.08256A81.79712 81.79712 0 0 1 1013.76 281.6c0 14.15168-3.91168 27.27936-10.24 38.89152V681.18528zM122.88 547.84c20.91008 0 35.4304-3.52256 61.44 0 0 0-82.24768-54.59968-82.24768-122.88H204.8s0.12288 113.74592 61.44 184.32l-20.48 20.48s-40.96-20.48-81.92 0c0 0-40.96 0-81.92-20.48v20.48H61.44v-122.88h20.48s0 40.96 40.96 40.96z m286.72 0c20.91008 0 35.4304-3.52256 61.44 0 0 0-82.24768-54.59968-82.24768-122.88H491.52s0.12288 113.74592 61.44 184.32l-20.48 20.48s-40.96-20.48-81.92 0c0 0-40.96 0-81.92-20.48v20.48h-20.48v-122.88h20.48s0 40.96 40.96 40.96zM778.24 752.64V793.6H530.0224c-9.33888 41.00096-45.85472 71.68-89.7024 71.68S359.95648 834.60096 350.6176 793.6H102.4v-40.96H0v-839.68h901.12V752.64h-122.88z m-450.56-81.92h245.76v-286.72H327.68V670.72zM40.96 670.72h245.76v-286.72H40.96V670.72z m737.28-655.36H102.4v143.36h675.84v-143.36z m81.92 368.64H614.4V670.72h245.76v-286.72z m-163.84 163.84c20.91008 0 35.4304-3.52256 61.44 0 0 0-82.24768-54.59968-82.24768-122.88H778.24s0.12288 113.74592 61.44 184.32l-20.48 20.48s-40.96-20.48-81.92 0c0 0-40.96 0-81.92-20.48v20.48h-20.48v-122.88h20.48s0 40.96 40.96 40.96z"  horiz-adv-x="1024" />

    
    <glyph glyph-name="courthouse" unicode="&#58953;" d="M370.688 393.35936l-188.49792 106.2912 65.51552 114.8928 188.53888-106.22976z m376.2176-98.05824l-318.50496 179.4048-32.74752-57.50784 318.464-179.42528z m38.66624-21.8112l-32.84992-57.46688 164.2496-92.44672 32.84992 57.40544z m-44.2368-57.46688c-2.51904-4.48512-9.40032-5.55008-15.38048-2.27328-5.95968 3.35872-8.6016 9.728-6.06208 14.27456l38.4 67.2768c2.64192 4.56704 9.5232 5.67296 15.44192 2.27328 5.87776-3.35872 8.54016-9.87136 6.00064-14.4384l-38.4-67.11296z m242.31936-36.84352a40.5504 40.5504 0 0 1-20.70528 5.07904l-42.00448-73.56416c3.3792-6.16448 8.41728-11.55072 15.0528-15.1552 18.51392-10.48576 41.79968-4.44416 51.97824 13.35296l10.77248 19.0464c10.19904 17.92 3.4816 40.7552-15.09376 51.24096zM454.47168 530.45248a18.41152 18.41152 0 0 0-25.088-7.00416l-164.98688 93.02016a18.26816 18.26816 0 0 0-6.94272 25.04704 18.51392 18.51392 0 0 0 25.1904 6.84032l164.94592-92.89728a18.2272 18.2272 0 0 0 6.88128-25.00608z m23.12192 40.38656a18.47296 18.47296 0 0 0-25.12896-6.9632l-165.04832 92.99968a18.1248 18.1248 0 0 0-6.90176 24.92416 18.432 18.432 0 0 0 25.1904 6.98368l164.98688-92.91776a18.24768 18.24768 0 0 0 6.90176-25.02656z m-139.42784-244.61312a18.57536 18.57536 0 0 0-25.16992-6.84032l-165.10976 93.02016a18.30912 18.30912 0 0 0-6.92224 25.04704 18.6368 18.6368 0 0 0 25.16992 6.84032l165.02784-93.02016a18.39104 18.39104 0 0 0 7.00416-25.04704z m23.06048 40.52992a18.47296 18.47296 0 0 0-25.27232-6.8608L170.96704 452.8128a18.432 18.432 0 0 0-6.94272 25.04704 18.47296 18.47296 0 0 0 25.21088 6.8608l164.9664-92.91776a18.39104 18.39104 0 0 0 7.02464-25.04704zM84.35712 201.29792h290.89792v-33.44384H84.35712z m354.42688-69.75488a23.59296 23.59296 0 0 1-23.2448 19.72224H44.15488a23.552 23.552 0 0 1-23.2448-19.72224H20.48v-54.76352h418.73408v54.76352h-0.43008z"  horiz-adv-x="1024" />

    
    <glyph glyph-name="electronics-store" unicode="&#58964;" d="M506.22464-107.52c-236.3392 0-428.62592 192.28672-428.62592 428.6464 0 151.26528 77.33248 288.41984 206.88896 366.85824a58.71616 58.71616 0 1 0 60.84608-100.4544c-94.1056-56.97536-150.28224-156.59008-150.28224-266.40384 0-171.60192 139.59168-311.1936 311.1936-311.1936 171.60192 0 311.17312 139.59168 311.17312 311.1936 0 111.616-60.29312 215.3472-157.42976 270.6432a58.71616 58.71616 0 1 0 58.10176 102.03136 429.7728 429.7728 0 0 0 216.7808-372.69504C934.85056 84.76672 742.6048-107.52 506.22464-107.52zM501.76 326.98368c-32.41984 0-71.68 26.29632-71.68 58.71616V808.46848c0 32.41984 39.26016 58.71616 71.68 58.71616S573.44 840.88832 573.44 808.46848v-422.76864c0-32.41984-39.26016-58.71616-71.68-58.71616z"  horiz-adv-x="1024" />

    
    <glyph glyph-name="boat-tour" unicode="&#58965;" d="M983.04 56.32c-20.48 0-37.96992 4.62848-55.99232 12.5952-18.75968 8.41728-37.92896 13.35296-59.86304 13.35296a144.6912 144.6912 0 0 1-60.49792-13.35296 147.29216 147.29216 0 0 0-59.33056-12.5952 148.72576 148.72576 0 0 0-59.55584 12.5952 148.6848 148.6848 0 0 1-61.25568 13.35296c-21.9136 0-42.82368-4.93568-61.58336-13.35296-18.0224-7.9872-38.44096-12.5952-59.5968-12.5952a148.3776 148.3776 0 0 0-59.63776 12.5952 150.17984 150.17984 0 0 1-61.48096 13.35296 148.8896 148.8896 0 0 1-61.48096-13.35296 148.84864 148.84864 0 0 0-59.65824-12.5952 149.83168 149.83168 0 0 0-59.86304 12.5952 148.8896 148.8896 0 0 1-61.37856 13.35296 150.3232 150.3232 0 0 1-61.60384-13.35296A152.00256 152.00256 0 0 0 20.48 56.32v87.4496c20.48 0 41.59488 4.7104 59.76064 12.71808a150.44608 150.44608 0 0 0 61.5424 13.35296c21.83168 0 42.9056-4.95616 61.41952-13.35296a149.4016 149.4016 0 0 1 59.88352-12.71808c21.17632 0 41.49248 4.7104 59.65824 12.71808a149.2992 149.2992 0 0 0 61.50144 13.35296 150.528 150.528 0 0 0 61.48096-13.35296c18.04288-8.00768 38.5024-12.71808 59.65824-12.71808s41.61536 4.7104 59.63776 12.71808a150.89664 150.89664 0 0 0 61.62432 13.35296c21.83168 0 42.76224-4.95616 61.37856-13.35296a149.27872 149.27872 0 0 1 59.78112-12.71808c21.25824 0 41.49248 4.7104 59.76064 12.71808a149.0944 149.0944 0 0 0 61.37856 13.35296c21.93408 0 39.34208-4.95616 58.10176-13.35296 18.0224-8.00768 35.51232-12.71808 55.99232-12.71808V56.32zM21.05344 424.96l-0.34816-202.9568c21.15584 0 41.49248 6.36928 59.65824 14.35648 18.6368 8.43776 39.66976 14.27456 61.48096 14.27456 21.83168 0 42.86464-4.48512 61.37856-12.92288a149.07392 149.07392 0 0 1 119.52128 0.3072 148.6848 148.6848 0 0 0 61.48096 13.43488c21.83168 0 42.74176-4.89472 61.48096-13.33248a147.70176 147.70176 0 0 1 119.296 0.02048 150.24128 150.24128 0 0 0 61.62432 13.37344c21.83168 0 42.76224-4.93568 61.37856-13.37344a149.17632 149.17632 0 0 1 59.78112-12.57472c5.98016 0 11.71456 1.24928 17.57184 1.90464 10.67008 2.23232 21.48352 3.25632 31.8464 7.29088l0.69632 0.34816c77.0048 30.55616 143.42144 102.62528 184.89344 159.04768L1003.52 424.96H21.05344z m548.37248 225.28h144.26112c1.61792 0 38.95296 5.75488 51.48672-21.56544L819.38432 506.88h-184.79104l-65.16736 143.36zM184.32 519.53664c0-9.54368-7.86432-12.65664-17.5104-12.65664H87.49056C77.824 506.88 61.44 509.99296 61.44 519.53664v117.32992c0 9.4208 16.384 13.37344 26.05056 13.37344h79.29856c9.66656 0 17.53088-3.95264 17.53088-13.37344v-117.32992z m327.68 0c0-9.54368-8.56064-12.65664-18.3296-12.65664h-79.19616c-9.76896 0-25.35424 3.11296-25.35424 12.65664v117.32992c0 9.4208 15.58528 13.37344 25.35424 13.37344h79.19616c9.76896 0 18.3296-3.95264 18.3296-13.37344v-117.32992z m-163.84 0c0-9.54368-8.51968-12.65664-18.26816-12.65664h-78.72512c-9.78944 0-25.88672 3.11296-25.88672 12.65664v117.32992c0 9.4208 16.09728 13.37344 25.88672 13.37344h78.72512c9.74848 0 18.26816-3.95264 18.26816-13.37344v-117.32992z m441.2416 144.93696C765.82912 715.71456 702.03392 711.68 702.03392 711.68H20.5824L20.48 465.92h854.3232l-85.4016 198.5536z"  horiz-adv-x="1024" />

    
    <glyph glyph-name="female" unicode="&#58969;" d="M468.48 801.28m-84.48 0a84.48 84.48 0 1 1 168.96 0 84.48 84.48 0 1 1-168.96 0ZM674.05824 240.64l-121.01632 332.53376-0.69632 3.42016c0 4.85376 4.07552 8.78592 9.15456 8.78592 4.32128 0 7.94624-2.88768 8.9088-6.73792L652.67712 363.52c5.46816-12.30848 27.9552-20.48 42.74176-20.48 19.7632 0 21.8112 38.8096 21.38112 40.96l-82.26816 212.11136C627.38432 643.64544 579.3792 691.2 524.5952 691.2H417.3824c-54.784 0-106.35264-47.55456-113.50016-95.08864L225.30048 384c-1.78176-4.07552 0-40.96 21.36064-40.96 16.60928 0 38.7072 5.79584 42.74176 20.48l79.36 216.04352a9.15456 9.15456 0 0 0 8.62208 5.81632c5.05856 0 9.13408-3.93216 9.13408-8.76544l-0.57344-3.13344L268.04224 240.64c-0.22528-0.98304 0-19.47648 0-20.48 0-7.08608 17.1008-20.48 24.53504-20.48H368.64v-268.1856c0-21.2992 18.75968-39.0144 40.96-39.0144s40.96 17.73568 40.96 39.0144V199.86432c0 5.79584 40.96 5.61152 40.96-0.18432v-266.24c0-21.2992 18.78016-40.96 40.96-40.96 22.24128 0 40.96 19.68128 40.96 40.96V199.68h79.23712c7.41376 0 21.38112 13.39392 21.38112 20.48 0 1.6384 0.59392 19.06688 0 20.48z"  horiz-adv-x="1024" />

    
    <glyph glyph-name="bicycle-store" unicode="&#58971;" d="M837.81632 432.10752c-25.92768 0-50.56512-5.3248-72.94976-14.88896l-62.99648 107.95008 47.47264 81.36704a23.3472 23.3472 0 0 1-8.37632 31.8464c-4.87424 2.82624-10.30144 7.94624-15.44192 7.10656L721.48992 650.24h-93.12256c-12.84096 0-23.26528-17.87904-23.26528-30.72 0-12.86144 10.42432-30.72 23.26528-30.72h60.35456l-27.17696-40.96H389.61152l54.31296 102.4h21.52448c12.84096 0 23.26528 7.61856 23.26528 20.48s-10.42432 20.48-23.26528 20.48h-116.38784c-12.82048 0-23.26528-7.61856-23.26528-20.48s10.42432-20.48 23.26528-20.48h40.93952l-130.84672-228.6592c-22.40512 9.56416-47.08352 12.6976-72.99072 12.6976-102.8096 0-186.1632-84.45952-186.1632-187.26912 0-102.83008 83.3536-186.71616 186.18368-186.71616s186.18368 83.08736 186.18368 185.91744c0 60.2112-28.71296 113.47968-73.1136 147.53792l49.82784 85.31968 142.82752-244.85888 0.55296-0.77824 0.6144-0.9216 0.47104-0.69632 1.8432-2.12992 0.22528-0.26624 0.63488-0.57344 0.65536-0.53248 1.80224-1.4336 0.75776-0.49152 0.59392-0.38912 0.24576-0.14336 0.08192-0.08192 1.96608-0.96256 0.22528-0.1024 0.47104-0.24576 0.16384-0.04096 1.49504-0.53248 1.39264-0.45056 0.28672-0.08192 0.512-0.08192 0.90112-0.18432 4.17792-0.43008 0.02048-1.26976 0.08192-1.20832h141.12768c11.50976-81.92 89.66144-161.6896 184.58624-161.6896 102.83008 0 186.18368 83.98848 186.18368 186.81856 0.02048 102.8096-83.33312 186.79808-186.1632 186.79808z m-512-186.18368a139.63264 139.63264 0 1 0-279.26528 0 139.61216 139.61216 0 0 0 139.63264 139.61216c17.34656 0 33.8944-3.29728 49.21344-9.09312l-69.3248-118.82496a23.32672 23.32672 0 0 1 20.09088-35.00032c8.00768 0 15.79008 4.13696 20.13184 11.53024l69.34528 118.90688a139.34592 139.34592 0 0 0 50.176-107.13088zM512 297.08288L389.61152 506.88h244.79744L512 297.08288z m162.89792 177.8688l49.84832-87.40864C686.20288 357.96992 659.57888 322.56 653.23008 261.12h-100.72064l122.38848 213.83168z m73.46176-129.9456L797.32736 261.12h-97.03424c5.61152 40.96 23.06048 62.976 48.06656 83.88608z m89.45664-240.00512c-69.16096 0-126.464 53.71904-137.54368 115.15904h137.48224l0.1024 1.20832 4.15744 1.08544 0.94208 0.47104 3.87072 1.35168 0.43008 0.32768 2.31424 1.18784 0.55296 0.43008 2.06848 1.49504 1.59744 1.35168 1.55648 1.69984 1.39264 1.7408 1.16736 1.88416 1.06496 1.9456 0.79872 2.12992 0.63488 2.12992 0.34816 2.12992 0.26624 2.51904 0.06144 0.7168-0.1024 1.31072-0.28672 2.53952-0.47104 2.17088-0.67584 2.12992-1.06496 2.31424-0.55296 1.20832-69.3248 118.82496a138.9568 138.9568 0 0 0 49.21344 9.09312c77.14816 0 139.65312-63.13984 139.65312-140.24704 0.02048-77.14816-62.50496-140.30848-139.65312-140.30848z"  horiz-adv-x="1024" />

    
    <glyph glyph-name="car-repair" unicode="&#58975;" d="M438.96832 738.52928L389.12 670.72h-116.40832c14.35648-40.96 61.35808-79.58528 126.99648-66.7648 19.456 1.31072 85.0944 11.73504 112.29184 5.3248 36.20864-8.68352 21.11488-8.72448 86.03648-60.8256L921.6 281.6c19.82464-17.5104 45.17888-10.3424 62.73024 9.44128 17.55136 19.82464 18.5344 54.96832-1.29024 72.47872L573.44 691.2c-25.64096 20.5824-32.11264 49.09056-40.96 81.92-17.2032 56.4224-80.46592 101.6832-142.56128 101.6832C339.88608 874.8032 286.04416 831.52896 266.24 793.6h122.88l49.84832-55.07072zM719.95392 240.64l-126.60736 219.7504c-4.99712 9.1136-17.63328 26.0096-28.01664 26.0096H212.91008c-10.38336 0-23.01952-16.896-28.03712-26.0096L61.44 240.64h-3.15392C37.49888 240.64 20.48 233.08288 20.48 212.2752v-189.0304C20.48 2.43712 37.49888-5.12 58.28608-5.12H102.4v-66.1504C102.4-102.48192 121.61024-128 152.80128-128h18.90304C202.91584-128 225.28-102.48192 225.28-71.2704V-5.12h327.68v-66.1504c0-31.19104 22.36416-56.7296 53.5552-56.7296h18.90304C656.62976-128 675.84-102.48192 675.84-71.2704V-5.12h44.11392C740.74112-5.12 757.76 2.43712 757.76 23.2448v189.0304C757.76 233.08288 740.74112 240.64 719.95392 240.64zM124.45696 98.85696a47.26784 47.26784 0 1 0 0 94.5152 47.26784 47.26784 0 0 0 0-94.5152zM162.26304 240.64l76.61568 160.31744C243.52768 410.25536 255.85664 424.96 266.24 424.96h245.76c10.38336 0 22.69184-14.70464 27.36128-24.00256L615.97696 240.64H162.26304z m491.52-141.78304a47.26784 47.26784 0 1 0 0 94.53568 47.26784 47.26784 0 0 0 0-94.53568z"  horiz-adv-x="1024" />

    
    <glyph glyph-name="convenience-store" unicode="&#58977;" d="M839.68 506.88h-5.57056a40.26368 40.26368 0 0 1-5.44768 7.4752L592.24064 767.65184c1.04448 5.05856 1.67936 10.30144 1.67936 15.70816C593.92 822.94784 564.75648 855.04 528.75264 855.04h-74.48576C418.28352 855.04 389.12 822.94784 389.12 783.36c0-5.40672 0.65536-10.6496 1.67936-15.70816L154.37824 514.3552a42.22976 42.22976 0 0 1-5.44768-7.4752H40.96v-143.36h40.96v-307.2a102.4 102.4 0 0 1 102.4-102.4h655.36a102.4 102.4 0 0 1 102.4 102.4V363.52h40.96v143.36h-143.36zM454.28736 711.68h74.48576l3.33824 0.36864L723.57888 506.88H259.46112l191.488 205.16864 3.33824-0.36864zM266.24 76.8c0-22.528-18.432-40.96-40.96-40.96s-40.96 18.432-40.96 40.96V322.56c0 22.528 18.432 40.96 40.96 40.96s40.96-18.432 40.96-40.96v-245.76z m184.32 0c0-22.528-18.432-40.96-40.96-40.96s-40.96 18.432-40.96 40.96V322.56c0 22.528 18.432 40.96 40.96 40.96s40.96-18.432 40.96-40.96v-245.76z m204.8 0c0-22.528-18.432-40.96-40.96-40.96s-40.96 18.432-40.96 40.96V322.56c0 22.528 18.432 40.96 40.96 40.96s40.96-18.432 40.96-40.96v-245.76z m184.32 0c0-22.528-18.432-40.96-40.96-40.96s-40.96 18.432-40.96 40.96V322.56c0 22.528 18.432 40.96 40.96 40.96s40.96-18.432 40.96-40.96v-245.76z"  horiz-adv-x="1024" />

    
    <glyph glyph-name="braille" unicode="&#58986;" d="M83.479813 79.771073h99.86561c37.505719 0 62.992467-13.345343 62.992467-50.279702 0-19.344626-9.611096-33.547009-26.690686-41.831732 24.037942-6.856323 36.301782-27.710972 36.301782-52.381491 0-40.138057-34.138775-59.564306-69.971225-59.564306H83.479813V79.771073z m40.811447-81.622892h53.524212c15.141047 0 26.425412 4.223985 26.425411 20.834243 0 18.854888-14.426846 19.977203-29.792356 19.977203H124.29126v-40.811446z m0-81.622893h55.932087c17.304053 0 32.220637 8.958112 32.220637 29.527081 0 20.160854-12.753577 31.690088-31.261568 31.690088H124.29126v-61.217169z m163.245785 102.028616h40.811446v-20.405723h0.448926c7.223626 20.405723 29.77195 29.547487 49.014547 29.547487 2.652744 0 11.753697-1.571241 11.753697-2.407876v-36.567055c-20.405723 0.85704-13.528994 1.326372-18.099876 1.326372-28.853693 0-43.117293-20.691403-43.117294-45.933283V-124.286158h-40.811446v142.840062z m118.94496-40.811447c2.163007 40.811446 33.1593 48.483998 65.135069 48.483999 28.608824 0 60.788649-5.876848 60.788649-40.260492v-74.542107c0-12.97804 5.570762-35.710016 9.202981-35.710015h-39.668726c-1.448806 0-2.652744 11.059902-2.897612 15.753218-12.508708-12.998446-30.771831-16.712287-48.075884-16.712287-27.180423 0-48.81049 14.059543-48.81049 43.402973 0 32.485911 24.262405 40.158463 48.81049 43.770276 24.058348 3.366944 46.402614 2.877207 46.402614 18.8957 0 16.93675-11.529234 19.03854-25.486748 19.038539-14.896178 0-24.527679-1.693675-25.95608-22.099398h-39.444263zM491.594277-50.356223c0-5.754414-17.528516-5.999283-29.812762-8.264318-12.26384-2.53031-21.895341-6.611454-21.895341-21.058707 0-14.651309 9.386633-18.263122 22.119804-18.263122 30.771831 0 29.567893 24.384839 29.567893 32.934837v14.65131z m125.780877 95.355944H577.910486v32.343071h39.464668v-32.343071zM573.21717 18.553904h40.811446v-142.840062h-40.811446v142.840062z m81.622892 61.217169h40.811447v-204.057231h-40.811447V79.771073z m81.622893 0h40.811446v-204.057231h-40.811446V79.771073z m116.292216-142.840062c1.224343-20.405723 13.202503-37.546531 35.11825-37.546531 15.875653 0 28.608824 17.140807 31.016699 17.140808h34.608106c-11.039496-20.405723-34.608106-44.525288-66.828743-44.525288-45.178271 0-73.0933 32.853214-73.0933 77.256068 0 42.89283 29.588299 74.195209 73.0933 74.195209 48.586027 0 72.154637-45.70882 69.481487-86.520266h-103.395799z m63.971942 20.405723c-3.611813 20.405723-12.018971 30.404528-31.261568 30.404528-25.017417 0-32.220637-9.998804-32.710374-30.404528h63.971942zM297.739907 232.813997m-71.420031 0a71.420031 71.420031 0 1 1 142.840062 0 71.420031 71.420031 0 1 1-142.840062 0ZM297.739907 518.494121m-71.420031 0a71.420031 71.420031 0 1 1 142.840062 0 71.420031 71.420031 0 1 1-142.840062 0ZM297.739907 804.174246m-71.420031 0a71.420031 71.420031 0 1 1 142.840062 0 71.420031 71.420031 0 1 1-142.840062 0ZM726.260093 232.813997m-71.420031 0a71.420031 71.420031 0 1 1 142.840062 0 71.420031 71.420031 0 1 1-142.840062 0ZM726.260093 518.494121m-71.420031 0a71.420031 71.420031 0 1 1 142.840062 0 71.420031 71.420031 0 1 1-142.840062 0ZM726.260093 804.174246m-71.420031 0a71.420031 71.420031 0 1 1 142.840062 0 71.420031 71.420031 0 1 1-142.840062 0Z"  horiz-adv-x="1024" />

    
    <glyph glyph-name="campground" unicode="&#58990;" d="M512 773.12c-25.86624 0-37.56032-12.61568-45.2608-26.33728L144.9984 141.14816H75.4688C45.11744 141.14816 20.48 117.69856 20.48 88.49408c0-29.14304 24.63744-52.6336 54.9888-52.6336h873.10336c30.33088 0 54.9888 23.49056 54.9888 52.6336 0 29.22496-24.63744 52.65408-54.9888 52.65408H879.0016L557.28128 746.8032C549.56032 760.50432 537.88672 773.12 512 773.12z m0-263.31136l181.08416-368.66048H330.91584L512 509.80864z"  horiz-adv-x="1024" />

    
    <glyph glyph-name="doctor" unicode="&#59004;" d="M879.08352 629.76H778.24V736.78848C778.24 813.30176 717.86496 875.52 641.14688 875.52H382.8736C306.11456 875.52 245.76 813.30176 245.76 736.78848V629.76H144.896C76.16512 629.76 20.48 576.69632 20.48 508.17024v-471.18336C20.48-31.51872 76.16512-87.04 144.896-87.04h734.18752C947.79392-87.04 1003.52-31.51872 1003.52 37.00736V508.17024C1003.52 576.69632 947.79392 629.76 879.08352 629.76zM327.68 736.78848C327.68 765.44 354.14016 793.6 382.8736 793.6h258.27328C669.7984 793.6 696.32 765.44 696.32 736.78848V629.76H327.68V736.78848zM737.28 179.2h-143.36v-143.36h-163.84v143.36h-143.36v163.84h143.36v143.36h163.84v-143.36h143.36v-163.84z"  horiz-adv-x="1024" />

    
    <glyph glyph-name="dentist" unicode="&#59005;" d="M508.86656 337.55136c72.64256 0 106.31168-55.0912 113.37728-133.36576 1.65888-18.71872-0.02048-46.01856-2.4576-77.63968C611.6352 21.52448 602.25536-107.52 672.1536-107.52c59.1872 0 89.51808 113.4592 107.08992 242.81088 16.91648 128.04096-1.04448 191.75424 7.82336 248.6272 16.81408 107.7248 110.83776 204.30848 81.79712 341.66784-16.09728 76.20608-58.08128 112.0256-99.61472 127.11936-95.72352 34.83648-157.57312-32.29696-260.38272-32.29696-102.78912 0-164.59776 67.13344-260.36224 32.29696-41.51296-15.07328-83.51744-50.91328-99.65568-127.11936-28.9792-137.35936 65.024-233.92256 81.89952-341.66784 8.78592-56.85248-9.07264-120.58624 7.82336-248.6272C256.1024 5.9392 286.49472-107.52 345.62048-107.52c69.85728 0 60.53888 129.04448 52.38784 234.06592-2.37568 31.6416-4.17792 58.94144-2.47808 77.66016 7.04512 78.25408 41.20576 133.34528 113.33632 133.34528z"  horiz-adv-x="1024" />

    
    <glyph glyph-name="canoe" unicode="&#59007;" d="M357.10976 632.1152a91.05408 91.05408 0 0 1 91.136 91.05408A90.9312 90.9312 0 0 1 357.10976 814.08a91.01312 91.01312 0 0 1-91.15648-90.91072 91.11552 91.11552 0 0 1 91.15648-91.05408zM20.48 134.81984c20.48 0 41.96352 4.9152 60.35456 13.16864a149.46304 149.46304 0 0 0 62.42304 13.84448 148.48 148.48 0 0 0 62.30016-13.84448 149.62688 149.62688 0 0 1 60.7232-13.04576 148.23424 148.23424 0 0 1 60.49792 13.04576 148.35712 148.35712 0 0 0 62.38208 13.84448 149.504 149.504 0 0 0 62.34112-13.84448 148.19328 148.19328 0 0 1 60.49792-13.04576c21.44256 0 42.1888 4.79232 60.47744 13.04576a149.8112 149.8112 0 0 0 62.48448 13.84448c22.15936 0 43.35616-5.12 62.23872-13.84448a149.54496 149.54496 0 0 1 60.64128-13.04576c21.504 0 42.0864 4.79232 60.60032 13.04576a148.09088 148.09088 0 0 0 116.28544 3.72736 165.23264 165.23264 0 0 1 43.86816 111.84128c0 91.62752-74.36288 165.80608-166.0928 165.80608l-18.61632-1.98656c-20.41856-82.67776-103.30112-86.15936-103.30112-86.15936l-379.2896 0.1024-31.70304 18.61632 76.45184 128 83.70176-48.25088c50.11456-32.41984 76.20608 13.02528 76.20608 13.02528l83.92704 136.51968c36.47488 59.31008-40.89856 106.86464-77.14816 47.32928l-58.75712-95.68256-139.63264 77.08672c-96.768 53.84192-137.76896-35.34848-137.76896-35.34848l-109.6704-187.43296c-18.65728-38.95296-2.12992-55.68512-2.12992-55.68512L20.48 339.57888v-204.75904zM1003.52-46.08a146.80064 146.80064 0 0 0-60.37504 13.02528 149.64736 149.64736 0 0 1-62.48448 13.824 148.0704 148.0704 0 0 1-62.21824-13.824 148.52096 148.52096 0 0 0-60.60032-13.02528 148.84864 148.84864 0 0 0-60.64128 13.02528 148.54144 148.54144 0 0 1-62.23872 13.824 149.79072 149.79072 0 0 1-62.48448-13.824A147.3536 147.3536 0 0 0 512-46.08a147.59936 147.59936 0 0 0-60.49792 13.02528 149.504 149.504 0 0 1-62.34112 13.824 148.31616 148.31616 0 0 1-62.3616-13.824 147.88608 147.88608 0 0 0-60.49792-13.02528 148.8896 148.8896 0 0 0-60.7232 13.02528 148.2752 148.2752 0 0 1-62.2592 13.824 148.992 148.992 0 0 1-62.34112-13.824A147.88608 147.88608 0 0 0 20.48-46.08v90.46016a147.968 147.968 0 0 1 60.49792 13.14816 149.38112 149.38112 0 0 0 62.34112 13.824c22.15936 0 43.49952-5.12 62.2592-13.824a149.2992 149.2992 0 0 1 60.7232-13.14816 147.968 147.968 0 0 1 60.49792 13.14816 148.62336 148.62336 0 0 0 62.3616 13.824c22.13888 0 43.33568-5.12 62.34112-13.824a147.94752 147.94752 0 0 1 60.49792-13.14816 147.456 147.456 0 0 1 60.47744 13.14816 150.1184 150.1184 0 0 0 62.48448 13.824c22.15936 0 43.35616-5.12 62.23872-13.824a149.27872 149.27872 0 0 1 60.64128-13.14816c21.504 0 42.0864 4.87424 60.60032 13.14816a148.39808 148.39808 0 0 0 62.21824 13.824c22.26176 0 43.49952-5.12 62.48448-13.824 18.30912-8.25344 38.912-13.14816 60.37504-13.14816V-46.08z"  horiz-adv-x="1024" />

    
    <glyph glyph-name="florist" unicode="&#59008;" d="M523.34592 155.19744c73.74848-344.28928 489.86112-62.44352 76.5952 177.37728 455.4752-264.35584 456.56064 366.91968 0.9216 102.76864 455.63904 264.13056-88.41216 579.8912-88.51456 51.38432 0.1024 528.50688-544.03072 212.992-88.61696-51.38432-455.41376 264.3968-455.94624-366.8992-0.38912-102.72768-413.4912-239.69792 1.67936-521.87136 75.44832-176.88576l24.55552-0.53248z m-65.80224 228.74112a54.8864 54.8864 0 0 0 54.76352 55.05024 54.8864 54.8864 0 0 0 54.74304-55.05024 54.8864 54.8864 0 0 0-54.74304-55.05024 54.94784 54.94784 0 0 0-54.76352 55.05024z"  horiz-adv-x="1024" />

    
    <glyph glyph-name="car-dealer" unicode="&#59009;" d="M978.59584 652.63616c-14.09024 11.10016-51.87584 20.00896-80.15872 26.64448L860.16 684.40064V776.92928l19.59936 0.3072C898.12992 767.91808 924.59008 752.64 925.96224 732.16h73.80992c-1.37216 40.96-32.48128 66.80576-60.17024 87.32672C921.23136 833.10592 901.12 840.37632 860.16 844.77952V896h-40.96v-49.64352c-40.96-3.93216-54.19008-14.1312-72.68352-30.78144-24.18688-21.77024-34.95936-49.09056-34.95936-81.98144 0-36.0448 10.30144-62.52544 35.06176-79.48288 13.84448-9.60512 31.62112-18.5344 72.58112-26.80832v-100.2496c-20.48 3.62496-20.52096 2.70336-27.7504 11.28448-6.9632 8.31488-8.86784 29.98272-11.24352 29.98272H706.9696c0-40.96 11.07968-60.57984 38.8096-82.432 19.98848-15.74912 32.4608-18.5344 73.4208-22.67136V424.96h40.96v37.60128c40.96 3.95264 75.75552 14.37696 95.76448 31.45728 25.96864 22.17984 47.2064 50.05312 47.2064 83.59936-0.02048 32.72704-2.64192 57.71264-24.53504 75.01824z m-179.5072 57.05728c-11.91936 6.49216-16.50688 16.32256-16.50688 29.45024 0 14.29504 3.95264 25.47712 16.03584 33.46432 6.36928 4.1984 0.1024 7.24992 20.5824 9.27744v-80.6912c-20.48 3.11296-15.60576 5.9392-20.11136 8.4992z m88.94464-180.6336c-3.44064-1.18784-27.87328-2.12992-27.87328-2.9696v85.34016c40.96-3.52256 37.80608-7.31136 44.60544-11.42784 10.67008-6.63552 16.03584-16.09728 16.03584-28.20096 0-20.80768-10.9568-35.08224-32.768-42.74176zM788.8896 281.6h-11.32544l-125.82912 227.84c-5.4272 9.85088-19.10784 17.92-30.37184 17.92H239.59552c-11.264 0-24.94464-8.06912-30.37184-17.92L83.39456 281.6H72.0896C49.54112 281.6 20.48 263.168 20.48 240.64v-204.8c0-22.528 29.06112-40.96 51.6096-40.96H102.4v-61.44c0-33.792 38.2976-61.44 72.0896-61.44h20.48c33.792 0 50.7904 27.648 50.7904 61.44v61.44h348.16v-61.44c0-33.792 38.27712-61.44 72.0896-61.44h20.48c33.792 0 50.7904 27.648 50.7904 61.44v61.44h51.6096c22.528 0 30.3104 18.432 30.3104 40.96V240.64c0 22.528-7.80288 40.96-30.3104 40.96z m-645.12-163.84a51.2 51.2 0 1 0 0 102.4 51.2 51.2 0 0 0 0-102.4z m40.96 163.84l83.00544 165.9904c5.0176 10.09664 18.37056 18.3296 29.63456 18.3296h266.24c11.264 0 24.59648-8.23296 29.63456-18.3296L676.2496 281.6h-491.52z m532.48-163.84a51.2 51.2 0 1 0 0 102.4 51.2 51.2 0 0 0 0-102.4z"  horiz-adv-x="1024" />

    
    <glyph glyph-name="fish-cleaning" unicode="&#59010;" d="M49.664 207.58528l-0.9216 2.43712c0 1.98656 1.39264 3.66592 3.46112 3.66592l99.57376-0.26624a9.07264 9.07264 0 0 1 8.97024 9.29792c0 3.91168-1.8432 6.61504-5.5296 8.8064l-90.39872 45.71136a6.81984 6.81984 0 0 0-2.7648 5.38624c0 1.72032 0.69632 3.44064 1.61792 4.42368 0 0 237.24032 222.94528 762.01984 6.79936l144.19968 74.83392a9.95328 9.95328 0 0 0 4.83328 1.24928c5.95968 0 11.0592-5.40672 11.0592-11.75552a12.12416 12.12416 0 0 0-1.6384-6.08256L899.072 239.63648l85.07392-112.49664c0.94208-1.69984 1.6384-3.8912 1.6384-6.08256 0-6.59456-5.09952-11.9808-11.0592-11.9808a10.42432 10.42432 0 0 0-4.83328 1.20832L825.69216 185.344c0.02048-0.02048-501.76-212.21376-776.02816 22.24128z m160.07168 45.93664c19.08736 0 34.16064 16.1792 34.16064 36.29056 0 20.45952-15.07328 36.5568-34.16064 36.5568-18.8416 0-33.91488-16.09728-33.91488-36.5568 0-20.11136 15.07328-36.29056 33.91488-36.29056zM655.36 629.76v-122.88h290.2016c31.9488 0 57.9584 27.46368 57.9584 61.44 0 34.24256-26.0096 61.44-57.9584 61.44H655.36zM120.75008 541.2864l26.46016 11.73504 16.54784-30.08512 26.68544 20.54144 19.08736-28.3648 25.53856 22.016 20.70528-26.91072 24.14592 23.47008 21.95456-25.64096 23.2448 24.6784 23.22432-24.6784 23.22432 24.6784 22.99904-24.6784 23.2448 24.6784 23.1424-24.6784 23.2448 24.6784 23.22432-24.6784 22.99904 24.6784 23.2448-24.6784 23.2448 24.6784 23.22432-24.6784 27.17696 24.6784L634.88 508.02688V629.76H20.48v-0.73728c20.48-35.4304 61.87008-65.51552 100.27008-87.73632z"  horiz-adv-x="1024" />

    
    <glyph glyph-name="bowling-alley" unicode="&#59011;" d="M646.5536 278.38464s-38.44096 96.11264-75.73504 187.88352c0 0-12.4928 55.15264-2.72384 128.34816 0 0 26.54208 111.88224 11.776 164.78208 0 0-22.67136 45.32224-69.77536 48.47616 0 0-65.00352-4.58752-77.14816-67.82976 0 0-3.1744-36.4544 6.92224-78.52032 0 0 36.39296-139.20256-3.52256-230.05184 0 0-55.68512-116.34688-60.1088-142.99136 0 0-20.84864-113.99168-0.32768-197.9392 0 0 43.08992-143.62624 74.62912-191.20128 0 0 63.97952-16.32256 118.86592 1.45408 0 0 65.80224 106.53696 78.9504 202.81344 0.04096 0 16.46592 101.72416-1.80224 174.77632z m204.98432 67.66592s-38.42048 96.13312-75.8784 187.86304c0 0-12.47232 55.17312-2.74432 128.24576 0 0 26.58304 111.88224 11.776 164.90496 0 0-22.56896 45.32224-69.71392 48.4352 0 0-65.024-4.56704-77.14816-67.7888 0 0-3.19488-36.47488 7.02464-78.5408 0 0 36.41344-139.32544-3.62496-230.03136 0 0-8.64256-18.24768-19.41504-41.63584 34.95936-85.9136 68.54656-169.84064 68.54656-169.84064l0.53248-1.45408 0.34816-1.4336c19.21024-76.41088 2.8672-179.13856 2.27328-182.94784-6.22592-45.75232-23.47008-92.52864-40.48896-130.6624l2.51904-4.15744s63.91808-16.34304 118.86592 1.55648c0 0 65.76128 106.3936 78.92992 202.73152 0 0.02048 16.4864 101.72416-1.80224 174.75584z m-457.80992 94.14656c2.17088 4.77184 3.97312 10.0352 5.67296 15.19616-9.99424 24.82176-20.8896 51.48672-31.6416 78.06976 0 0-12.61568 55.296-2.74432 128.34816 0 0 26.56256 111.77984 11.81696 164.80256 0 0-22.67136 45.34272-69.79584 48.45568 0 0-65.06496-4.68992-77.12768-67.66592 0 0-3.15392-36.61824 7.04512-78.56128 0 0 36.41344-139.28448-3.62496-230.13376 0 0-55.68512-116.36736-60.12928-142.99136 0 0-20.86912-114.01216-0.32768-197.9392 0 0 43.08992-143.64672 74.60864-191.09888 0 0 64-16.46592 118.86592 1.47456l3.42016 5.69344a1783.9104 1783.9104 0 0 0-37.74464 111.53408c-21.34016 87.49056-0.79872 202.15808 0 206.5408 4.62848 28.34432 52.40832 129.024 61.70624 148.2752z"  horiz-adv-x="1024" />

    
    <glyph glyph-name="climbing" unicode="&#59012;" d="M131.72736 454.656a105.8816 105.8816 0 0 1-10.62912-46.30528l3.95264-248.32-86.1184-184.81152a56.0128 56.0128 0 0 1-6.16448-18.47296 55.76704 55.76704 0 0 1 47.0016-63.5904 55.78752 55.78752 0 0 1 57.40544 28.38528l94.74048 202.01472c1.96608 4.68992 3.72736 9.6256 4.44416 15.03232l0.512 7.61856-0.73728 153.51808 145.59232-63.32416 23.51104-150.03648a55.808 55.808 0 0 1 46.26432-43.13088 56.34048 56.34048 0 0 1 63.85664 46.7968c0.7168 5.18144 0.7168 10.36288 0.22528 15.27808l-28.69248 181.12512a56.56576 56.56576 0 0 1-31.41632 40.18176l-130.12992 57.58976 82.86208 143.64672 41.10336-51.99872c4.1984-4.66944 9.64608-8.62208 15.81056-11.07968l156.63104-45.568a44.11392 44.11392 0 0 1 50.21696 26.33728 44.032 44.032 0 0 1-24.22784 57.40544l-2.23232 0.73728-136.0896 39.91552-102.44096 122.44992a103.85408 103.85408 0 0 1-59.61728 31.55968 102.1952 102.1952 0 0 1-101.82656-47.06304L131.72736 454.656z m449.31072-356.02432l-9.89184-74.40384-269.43488-65.26976 2.60096-45.99808h657.12128A41.90208 41.90208 0 0 1 1003.52-45.19936l-0.73728 882.05312-90.03008 20.93056-51.73248-231.89504-86.48704-36.20864-76.6976-213.83168 72.86784-163.61472-20.52096-62.81216-169.14432-50.7904zM398.09024 708.46464c46.26432 0 83.8656 37.43744 83.8656 83.51744C481.93536 838.0416 444.35456 875.52 398.09024 875.52s-83.88608-37.4784-83.88608-83.53792c-0.02048-46.08 37.60128-83.51744 83.88608-83.51744z m-166.89152-13.06624a23.7568 23.7568 0 0 1-8.9088 32.52224L181.69856 751.57504a24.2688 24.2688 0 0 1-32.91136-8.86784L23.61344 527.58528a23.81824 23.81824 0 0 1 8.88832-32.52224l40.83712-23.42912a23.94112 23.94112 0 0 1 32.64512 8.64256l125.21472 215.12192z"  horiz-adv-x="1024" />

    
    <glyph glyph-name="general-contractor" unicode="&#59013;" d="M726.71232 588.10368c-5.07904 0-9.91232 3.42016-9.91232 8.41728v126.5664c0 4.99712-2.74432 9.07264-7.84384 9.07264H315.02336c-5.09952 0-7.82336-4.07552-7.82336-9.07264v-126.5664c0-4.99712-5.50912-7.72096-10.62912-7.72096H29.67552c-5.03808 0-9.19552-5.46816-9.19552-10.40384v-140.6976c0-4.95616 4.15744-12.73856 9.19552-12.73856h429.79328c5.09952 0 11.5712 7.7824 11.5712 12.73856v30.0032c0 4.99712 1.88416 18.69824 6.9632 18.69824h68.01408c5.07904 0 6.94272-13.70112 6.94272-18.69824v-30.0032c0-4.95616 6.47168-12.73856 11.53024-12.73856h429.7728c5.12 0 9.25696 7.7824 9.25696 12.73856v140.6976c0 4.95616-4.13696 10.40384-9.23648 10.40384H727.40864l-0.69632-0.69632zM370.54464 588.8c-5.07904 0-1.90464 2.72384-1.90464 7.70048v71.94624c0 5.0176-3.1744 2.27328 1.90464 2.27328h282.91072c5.07904 0 1.90464 2.74432 1.90464-2.27328v-71.94624c0-4.97664 3.1744-7.70048-1.90464-7.70048H370.54464z m183.54176-301.30176c0-4.95616-2.99008-5.89824-8.06912-5.89824H478.0032c-5.07904 0-6.9632-2.19136-6.9632 2.7648v101.13024c0 4.95616-6.47168 18.98496-11.55072 18.98496H29.67552c-5.03808 0-9.19552-14.0288-9.19552-18.98496v-299.60192a9.216 9.216 0 0 1 9.19552-9.09312h964.608a9.19552 9.19552 0 0 1 9.23648 9.07264v299.6224c0 4.95616-4.13696 18.98496-9.23648 18.98496H564.49024c-5.05856 0-11.53024-14.0288-11.53024-18.98496v-101.13024l1.1264 3.13344z"  horiz-adv-x="1024" />

    
    <glyph glyph-name="compass" unicode="&#59014;" d="M512-107.52C240.96768-107.52 20.48 112.98816 20.48 384 20.48 655.03232 240.96768 875.52 512 875.52c271.01184 0 491.52-220.48768 491.52-491.52 0-271.01184-220.50816-491.52-491.52-491.52z m0 901.12C286.14656 793.6 102.4 609.85344 102.4 384s183.74656-409.6 409.6-409.6 409.6 183.74656 409.6 409.6S737.85344 793.6 512 793.6z m0.9216-66.56S368.64 479.82592 368.64 404.48v-40.96c0-75.32544 144.71168-327.68 144.71168-327.68S655.36 282.95168 655.36 358.27712v46.32576c0 75.34592-142.4384 322.43712-142.4384 322.43712zM512 302.08a81.92 81.92 0 1 0 0 163.84 81.92 81.92 0 0 0 0-163.84z"  horiz-adv-x="1024" />

    
    <glyph glyph-name="gym" unicode="&#59015;" d="M367.86176-23.01952a20.62336 20.62336 0 0 0-1.024-28.99968l-44.48256-41.59488a20.45952 20.45952 0 0 0-28.89728 1.04448L34.4064 186.61376a20.62336 20.62336 0 0 0 1.04448 28.99968l44.544 41.53344a20.43904 20.43904 0 0 0 28.89728-1.04448l258.9696-279.12192z m330.5472 525.312a20.62336 20.62336 0 0 0-1.04448-28.99968l-279.9616-261.5296a20.45952 20.45952 0 0 0-28.89728 1.04448l-66.82624 72.11008a20.62336 20.62336 0 0 0 1.04448 28.99968l279.90016 261.5296a20.41856 20.41856 0 0 0 28.8768-1.04448l66.90816-72.11008zM463.11424 66.00704c7.65952-8.25344 7.18848-21.2992-1.04448-28.99968l-44.544-41.5744a20.43904 20.43904 0 0 0-28.89728 1.04448L129.72032 275.6608a20.62336 20.62336 0 0 0 1.024 28.99968l44.46208 41.55392a20.45952 20.45952 0 0 0 28.89728-1.04448l259.01056-279.16288z m431.37024 426.27072a20.62336 20.62336 0 0 0-1.06496-28.99968l-44.52352-41.5744a20.48 20.48 0 0 0-28.91776 1.024L561.02912 701.8496a20.60288 20.60288 0 0 0 1.024 28.99968l44.6464 41.6768a20.41856 20.41856 0 0 0 28.8768-1.04448l258.90816-279.20384z m95.10912 88.8832a20.66432 20.66432 0 0 0-1.04448-29.02016l-44.4416-41.55392a20.41856 20.41856 0 0 0-28.8768 1.024L656.32256 790.85568a20.66432 20.66432 0 0 0 1.024 29.02016l44.48256 41.63584a20.3776 20.3776 0 0 0 28.85632-1.024L989.5936 581.16096z"  horiz-adv-x="1024" />

    
    <glyph glyph-name="funeral-home" unicode="&#59016;" d="M516.95616 853.21728L20.48 424.96h122.88v-512h737.28V424.96h122.88L516.95616 853.21728zM696.32 281.6h-143.36v-247.56224L552.01792 35.84h-97.792l-3.66592-1.80224V281.6h-122.88v81.92h122.88v184.32h102.4v-184.32h143.36v-81.92z"  horiz-adv-x="1024" />

    
    <glyph glyph-name="grocery-or-supermarket" unicode="&#59019;" d="M901.12 35.84m-81.92 0a81.92 81.92 0 1 1 163.84 0 81.92 81.92 0 1 1-163.84 0ZM307.2 35.84m-81.92 0a81.92 81.92 0 1 1 163.84 0 81.92 81.92 0 1 1-163.84 0ZM962.56 220.16H322.99008l13.66016 22.15936c5.85728 9.50272 7.5776 20.992 4.77184 31.80544l-13.33248 51.32288 593.57184 30.84288C944.16896 357.43744 962.56 376.832 962.56 399.36V670.72c0 22.528-18.432 40.96-40.96 40.96H227.71712l-8.00768 30.78144A40.96 40.96 0 0 1 180.06016 773.12H40.96a40.96 40.96 0 0 1 0-81.92h107.43808l109.3632-420.7616-43.008-69.7344a40.91904 40.91904 0 0 1-0.88064-41.45152A40.89856 40.89856 0 0 1 249.61024 138.24H962.56a40.96 40.96 0 0 1 0 81.92z"  horiz-adv-x="1024" />

    
    <glyph glyph-name="cross-country-skiing" unicode="&#59020;" d="M674.44736 758.8864a75.6736 75.42784 90 1 1 150.85568 0 75.6736 75.42784 90 1 1-150.85568 0ZM271.5648 31.70304L20.48 284.28288l0.1024-44.11392L254.27968 4.9152c26.84928-29.184 72.84736 4.56704 72.84736 4.56704l-22.05696 23.69536s-21.72928-14.29504-32.9728-2.12992l-0.53248 0.65536zM20.48 506.88h266.24v-20.48H20.48z m953.7536 71.80288l29.2864-13.86496L711.7824-25.6h-32.29696z m-484.12672 48.3328l-117.41184-135.94624c-6.90176-8.6016-17.48992-13.96736-29.30688-13.96736a37.9904 37.9904 0 0 0-37.96992 38.0928c0 11.38688 4.89472 21.54496 12.8 28.48768l126.54592 146.2272a38.05184 38.05184 0 0 0 29.2864 13.74208l183.25504 0.1024c13.47584 0 25.51808-5.48864 34.42688-13.96736l116.8384-117.18656 96.80896 96.84992a38.74816 38.74816 0 0 0 25.16992 9.27744c21.72928 0 39.2192-17.65376 39.2192-39.3216 0-9.48224-3.23584-18.08384-8.8064-24.90368l-116.736-117.9648c-35.40992-35.5328-63.95904-5.36576-63.95904-5.36576l-71.59808 72.15104-111.96416-129.80224 102.58432-102.87104s21.6064-20.11136 9.25696-60.2112L651.0592 13.49632A48.88576 48.88576 0 0 0 603.27936-25.6a48.86528 48.86528 0 0 0-48.80384 48.92672c0 4.25984 0.43008 8.37632 1.57696 12.30848l47.22688 210.88256-116.51072 113.52064-100.2496-112.04608s-16.26112-20.11136-59.26912-18.55488l-203.28448-0.34816a48.80384 48.80384 0 0 0-48.45568 38.21568 48.14848 48.14848 0 0 0 36.53632 58.08128c4.11648 0.9216 8.23296 1.35168 12.24704 1.1264l174.8992-0.43008L557.75232 626.688l-67.64544 0.32768zM938.496-29.04064c-0.06144-19.80416-16.46592-37.51936-36.1472-37.51936H307.2v-20.48h595.06688c33.11616-0.18432 60.12928 25.37472 60.29312 58.65472l-24.064-0.65536z"  horiz-adv-x="1024" />

    
    <glyph glyph-name="hardware-store" unicode="&#59021;" d="M257.04448-117.4528c-6.9632-12.20608-26.78784-14.1312-44.27776-4.096l-109.48608 62.32064c-17.408 9.9328-25.9072 27.89376-18.92352 40.07936L550.01088 719.01184c66.9696 108.25728-167.1168 98.7136-224.58368 66.84672C368.88576 863.78496 507.392 889.50784 597.21728 896l26.13248-1.69984c50.76992-25.2928 123.57632-63.24224 171.56096-95.06816 35.24608-55.35744 72.41728-84.50048 125.05088-84.35712 68.68992-52.6336-38.6048-196.21888-106.10688-129.72032 0.36864 32.84992-94.94528 117.84192-161.71008 47.8208L257.04448-117.4528z"  horiz-adv-x="1024" />

    
    <glyph glyph-name="car-wash" unicode="&#59022;" d="M880.64 773.12V855.04H143.36v-81.92H0v-880.64h81.92V691.2h61.44v-81.92h737.28v81.92h61.44v-798.72h81.92V773.12z m-19.41504-471.04l-133.632 227.84c-5.30432 9.85088-18.6368 17.92-29.61408 17.92H326.00064c-10.97728 0-24.30976-8.06912-29.5936-17.92L162.79552 302.08C140.84096 302.08 122.88 283.648 122.88 261.12v-204.8c0-22.528 17.96096-40.96 39.91552-40.96H204.8v-61.44c0-33.792 24.84224-61.44 57.7536-61.44h19.968C315.43296-107.52 348.16-79.872 348.16-46.08v61.44h327.68v-61.44c0-33.792 32.70656-61.44 65.6384-61.44h19.968c32.91136 0 57.7536 27.648 57.7536 61.44v61.44h42.02496C883.15904 15.36 901.12 33.792 901.12 56.32V261.12c0 22.528-17.96096 40.96-39.89504 40.96z m-628.59264-163.84c-27.5456 0-49.88928 22.91712-49.88928 51.2s22.34368 51.2 49.88928 51.2c27.56608 0 49.88928-22.91712 49.88928-51.2s-22.3232-51.2-49.88928-51.2z m29.92128 163.84l90.84928 166.01088c4.9152 10.07616 17.92 18.30912 28.8768 18.30912h259.42016c10.97728 0 23.98208-8.23296 28.8768-18.30912L761.4464 302.08H262.5536z m528.81408-163.84c-27.5456 0-49.88928 22.91712-49.88928 51.2s22.34368 51.2 49.88928 51.2c27.56608 0 49.90976-22.91712 49.90976-51.2S818.91328 138.24 791.36768 138.24z"  horiz-adv-x="1024" />

    
    <glyph glyph-name="food" unicode="&#59023;" d="M1001.34912 585.64608L920.76032-46.08H648.56064l-80.26112 634.88h332.30848l65.67936 226.85696L1003.52 804.43392l-63.01696-218.3168 60.84608-0.47104zM529.8176 220.16s10.17856 81.92-130.9696 81.92H174.05952c-140.94336 0-130.9696-81.92-130.9696-81.92H529.8176zM43.08992 35.84s-9.97376-81.92 130.9696-81.92h224.80896c141.14816 0 130.9696 81.92 130.9696 81.92H43.08992z m465.6128 40.96c23.10144 0 41.75872 22.81472 41.75872 51.17952 0 28.52864-18.65728 51.22048-41.75872 51.22048H62.2592C39.26016 179.2 20.48 156.50816 20.48 127.97952 20.48 99.61472 39.26016 76.8 62.2592 76.8h446.44352z"  horiz-adv-x="1024" />

    
    <glyph glyph-name="hair-care" unicode="&#59024;" d="M864.93184 377.6512c7.10656 8.74496 21.66784 18.80064 32.33792 22.3232l87.94112 35.90144c10.07616 5.05856 18.30912 18.41152 18.30912 29.65504V716.3904c0 11.264-8.62208 23.7568-19.1488 27.7504 0 0-183.97184 69.9392-307.22048 69.9392-114.688 0-273.24416-60.47744-273.24416-60.47744a204.51328 204.51328 0 0 0-39.46496-9.80992L40.81664 709.0176A23.81824 23.81824 0 0 1 20.48 686.03904v-170.27072c0-11.264 9.05216-22.17984 20.13184-24.24832l323.4816-52.20352c11.10016-1.8432 28.7744-6.7584 39.23968-10.91584l221.53216-56.66816c11.12064-1.67936 23.26528-11.75552 26.9312-22.4256l130.23232-376.03328c3.6864-10.67008 15.44192-16.42496 26.112-12.84096l137.68704 46.30528a20.31616 20.31616 0 0 1 12.71808 25.88672L868.1472 293.39648c-3.6864 10.67008-6.79936 19.98848-6.94272 20.74624l-0.16384 0.77824c-10.83392 44.52352 3.8912 62.73024 3.8912 62.73024z m-157.16352 135.35232c-51.4048 0-92.91776 40.96-92.91776 91.4432 0 50.50368 41.51296 91.4432 92.91776 91.4432 51.24096 0 92.8768-40.96 92.8768-91.4432s-41.63584-91.4432-92.8768-91.4432z"  horiz-adv-x="1024" />

    
    <glyph glyph-name="department-store" unicode="&#59026;" d="M696.32 670.72V732.89728C696.32 783.70816 653.12768 834.56 602.33728 834.56h-170.86464C380.70272 834.56 327.68 783.70816 327.68 732.89728V670.72h-108.78976L102.4-46.08h823.02976l-118.33344 716.8H696.32zM389.12 732.89728C389.12 751.9232 412.4672 773.12 431.47264 773.12h170.86464C621.32224 773.12 634.88 751.9232 634.88 732.89728V670.72H389.12V732.89728z"  horiz-adv-x="1024" />

    
    <glyph glyph-name="diving" unicode="&#59027;" d="M962.56-87.06048a134.79936 134.79936 0 0 0-55.41888 12.0832 135.92576 135.92576 0 0 1-57.20064 12.71808c-20.3776 0-39.71072-4.68992-57.22112-12.71808-16.7936-7.59808-35.61472-12.0832-55.41888-12.0832a134.9632 134.9632 0 0 0-55.43936 12.0832 136.2944 136.2944 0 0 1-57.22112 12.71808c-20.39808 0-39.89504-4.68992-57.22112-12.71808a134.47168 134.47168 0 0 0-55.37792-12.0832 136.54016 136.54016 0 0 0-55.66464 12.0832 135.22944 135.22944 0 0 1-56.95488 12.71808 135.7824 135.7824 0 0 1-57.18016-12.71808 134.77888 134.77888 0 0 0-55.33696-12.0832 136.8064 136.8064 0 0 0-55.64416 12.0832 135.31136 135.31136 0 0 1-56.97536 12.71808 135.9872 135.9872 0 0 1-57.22112-12.71808 135.86432 135.86432 0 0 0-55.64416-12.0832V-4.096c19.72224 0 38.8096 4.48512 55.64416 12.0832a139.42784 139.42784 0 0 0 57.22112 12.51328c20.1728 0 39.69024-4.7104 56.97536-12.51328a136.8064 136.8064 0 0 1 55.64416-12.0832c19.64032 0 38.48192 4.48512 55.33696 12.0832a139.24352 139.24352 0 0 0 57.18016 12.51328c20.19328 0 39.66976-4.7104 56.95488-12.51328 17.03936-7.59808 35.88096-12.0832 55.66464-12.0832a134.5536 134.5536 0 0 1 55.37792 12.0832 139.65312 139.65312 0 0 0 57.22112 12.51328c20.45952 0 39.71072-4.7104 57.22112-12.51328a134.9632 134.9632 0 0 1 55.43936-12.0832c19.80416 0 38.62528 4.48512 55.41888 12.0832a140.30848 140.30848 0 0 0 57.22112 12.51328c20.35712 0 39.89504-4.7104 57.20064-12.51328 16.81408-7.59808 35.69664-12.0832 55.41888-12.0832v-82.96448zM316.43648 319.65184a75.9808 75.9808 0 0 1 76.04224 75.81696c0 41.82016-34.07872 75.59168-76.04224 75.59168-41.86112 0-75.93984-33.77152-75.93984-75.59168s34.07872-75.81696 75.93984-75.81696z m10.77248-262.0416a42.5984 42.5984 0 0 0-58.44992-15.23712 42.72128 42.72128 0 0 0-15.48288 58.40896l176.25088 302.51008a70.84032 70.84032 0 0 0 27.07456 27.05408l226.63168 136.84736 153.9072 261.14048a53.37088 53.37088 0 0 0 72.72448 19.68128 53.18656 53.18656 0 0 0 19.456-72.45824l-184.40192-312.79104a68.42368 68.42368 0 0 0-27.136-27.05408l-267.44832-165.70368-123.12576-212.39808z"  horiz-adv-x="1024" />

    
    <glyph glyph-name="ice-skating" unicode="&#59028;" d="M893.60384 695.23456C943.104 695.23456 983.04 735.68256 983.04 785.38752 983.04 835.19488 943.104 875.52 893.60384 875.52c-49.23392 0-89.16992-40.32512-89.16992-90.13248-0.02048-49.70496 39.936-90.15296 89.16992-90.15296zM634.88-87.04h245.76s20.48 2.10944 20.48 20.48v20.48h20.48s8.41728-55.48032-38.03136-61.44H634.88v20.48zM61.44 97.28l163.84-163.84s13.49632-5.07904 26.43968 7.86432l12.94336 13.04576L286.72-66.56s-36.7616-53.6576-73.80992-24.71936L40.96 82.39104 61.44 97.28z m632.9344 66.51904l0.28672-163.18464c0-30.67904 21.62688-55.52128 52.0192-55.52128 27.87328 0 52.03968 32.4608 52.03968 55.52128V227.69664c0 15.81056-3.56352 30.16704-14.09024 40.28416l-130.6624 132.87424 175.84128 176.7424c32.91136 41.45152 15.93344 91.15648 15.93344 91.15648-18.08384 55.13216-79.91296 57.0368-79.91296 57.0368l-451.15392 0.12288a43.76576 43.76576 0 0 1-43.54048-43.97056c0-24.4736 19.61984-43.99104 43.6224-43.99104l311.54176-0.49152-131.11296-131.85024c-18.82112-19.39456-28.3648-41.20576-28.3648-69.71392a97.0752 97.0752 0 0 1 28.89728-69.7344l198.656-202.36288z m-226.57024 177.47968a100.7616 100.7616 0 0 0-11.53024 13.18912L195.93216 91.136a55.15264 55.15264 0 0 1-14.29504-67.56352 53.90336 53.90336 0 0 1 83.00544-16.9984L531.8656 276.74624l-64.06144 64.53248z"  horiz-adv-x="1024" />

    
    <glyph glyph-name="car-rental" unicode="&#59032;" d="M839.68 814.08H452.13696C421.35552 855.04 370.91328 890.92096 313.856 890.92096c-93.73696 0-169.71776-73.23648-169.71776-166.97344 0-93.75744 75.9808-164.59776 169.71776-164.59776 71.29088 0 132.28032 49.93024 157.45024 111.37024h56.4224l40.89856 40.91904L609.50528 670.72h25.4976l40.87808 40.91904L716.77952 670.72h25.47712l40.89856 40.91904L824.05376 670.72H839.68v-5.75488l-3.56352-0.83968 80.6912 79.09376L839.68 814.08z m-580.75136-135.3728a49.152 49.152 0 1 0 0.06144 98.32448 49.152 49.152 0 0 0-0.06144-98.32448zM880.64 281.6h-11.32544l-125.82912 227.84c-5.4272 9.85088-19.10784 17.92-30.37184 17.92H331.3664c-11.264 0-24.94464-8.06912-30.37184-17.92L175.14496 281.6H163.84c-22.528 0-40.96-18.432-40.96-40.96v-204.8c0-22.528 18.432-40.96 40.96-40.96h40.96v-61.44c0-33.792 27.648-61.44 61.44-61.44h20.48c33.792 0 61.44 27.648 61.44 61.44v61.44h348.16v-61.44c0-33.792 27.648-61.44 61.44-61.44h20.48c33.792 0 61.44 27.648 61.44 61.44v61.44h40.96c22.528 0 40.96 18.432 40.96 40.96V240.64c0 22.528-18.432 40.96-40.96 40.96z m-645.12-163.84a51.2 51.2 0 1 0 0 102.4 51.2 51.2 0 0 0 0-102.4z m40.96 163.84l83.00544 165.9904C364.52352 457.68704 377.856 465.92 389.12 465.92h266.24c11.264 0 24.59648-8.23296 29.63456-18.3296L768 281.6h-491.52z m532.48-163.84a51.2 51.2 0 1 0 0 102.4 51.2 51.2 0 0 0 0-102.4z"  horiz-adv-x="1024" />

    
    <glyph glyph-name="hospital" unicode="&#59033;" d="M757.76 875.52c-11.264 0-20.48-9.216-20.48-20.48v-286.72c0-11.264-9.216-20.48-20.48-20.48H307.2c-11.264 0-20.48 9.216-20.48 20.48V855.04c0 11.264-9.216 20.48-20.48 20.48H81.92c-11.264 0-20.48-9.216-20.48-20.48v-942.08c0-11.264 9.216-20.48 20.48-20.48h184.32c11.264 0 20.48 9.216 20.48 20.48V240.64c0 11.264 9.216 20.48 20.48 20.48h409.6c11.264 0 20.48-9.216 20.48-20.48v-327.68c0-11.264 9.216-20.48 20.48-20.48h184.32c11.264 0 20.48 9.216 20.48 20.48V855.04c0 11.264-9.216 20.48-20.48 20.48h-184.32z"  horiz-adv-x="1024" />

    
    <glyph glyph-name="health" unicode="&#59034;" d="M1003.52 547.84c0 11.264-9.216 20.48-20.48 20.48H716.8c-11.264 0-20.48 9.216-20.48 20.48V855.04c0 11.264-9.216 20.48-20.48 20.48H348.16c-11.264 0-20.48-9.216-20.48-20.48v-266.24c0-11.264-9.216-20.48-20.48-20.48H40.96c-11.264 0-20.48-9.216-20.48-20.48v-327.68c0-11.264 9.216-20.48 20.48-20.48h266.24c11.264 0 20.48-9.216 20.48-20.48v-266.24c0-11.264 9.216-20.48 20.48-20.48h327.68c11.264 0 20.48 9.216 20.48 20.48V179.2c0 11.264 9.216 20.48 20.48 20.48h266.24c11.264 0 20.48 9.216 20.48 20.48V547.84z"  horiz-adv-x="1024" />

    
    <glyph glyph-name="church" unicode="&#59037;" d="M1003.52 437.32992l-471.04 222.8224V752.64h61.44V793.6h-61.44V875.52h-40.96v-81.92h-61.44v-40.96h61.44v-92.48768L162.65216 504.40192 20.48 437.32992V404.48h143.36v-512h245.76V199.68h204.8v-307.2h245.76V404.48h143.36z"  horiz-adv-x="1024" />

    
    <glyph glyph-name="laundry" unicode="&#59038;" d="M122.88 670.72v-690.9952C122.88-50.3808 148.21376-87.04 179.4048-87.04h680.30464C890.81856-87.04 921.6-50.3808 921.6-20.2752V670.72H122.88z m398.5408-548.37248c-120.0128 0-217.31328 94.08512-217.31328 210.18624S401.408 542.72 521.4208 542.72s217.31328-94.08512 217.31328-210.18624c0-116.1216-97.30048-210.18624-217.31328-210.18624zM859.70944 875.52H179.4048C148.21376 875.52 122.88 854.36416 122.88 824.2176V711.68h798.72V824.2176C921.6 854.36416 890.81856 875.52 859.70944 875.52zM389.12 752.64H163.84V834.56h225.28v-81.92z m392.11008 5.7344c-25.57952 0-46.24384 20.04992-46.24384 44.81024 0 24.71936 20.66432 44.76928 46.24384 44.76928s46.30528-20.04992 46.30528-44.76928c-0.02048-24.73984-20.72576-44.81024-46.30528-44.81024z"  horiz-adv-x="1024" />

    
    <glyph glyph-name="hang-gliding" unicode="&#59039;" d="M590.9504 307.56864c26.56256-8.99072 55.43936 4.5056 64.7168 30.45376 9.23648 25.88672-4.85376 54.02624-31.4368 63.03744-26.60352 9.0112-55.48032-4.73088-64.7168-30.6176a49.13152 49.13152 0 0 1 31.4368-62.8736z m416.72704 322.6624s-171.95008 20.15232-529.05984 20.15232c-263.41376 0-478.59712-20.15232-478.59712-20.15232s89.23136-38.27712 73.74848-156.93824c0 0 128.04096 14.86848 181.67808-91.9552l240.49664 71.04512-15.72864-156.30336-101.72416-24.30976c-9.0112-2.02752-16.62976-6.30784-22.85568-11.69408L132.46464 50.21696a31.19104 31.19104 0 0 1-0.67584-45.21984c12.47232-12.86144 33.50528-13.312 46.44864-1.14688l167.91552 157.57312 205.7216 49.07008-1.39264-0.43008 34.2016 8.56064 31.4368-34.9184c4.85376-5.16096 11.776-8.31488 19.18976-8.31488l110.71488-0.43008c13.88544 0 25.41568 11.01824 25.41568 24.76032 0 11.93984-8.54016 21.15584-19.8656 23.87968l-82.51392 279.77728 343.69536 101.41696c16.42496 7.00416 15.03232 23.30624-5.07904 25.43616z m-280.82176-405.504c-25.1904 0-67.2768 0.22528-79.9744 0.22528l-59.65824 65.7408-2.53952 1.80224a51.6096 51.6096 0 0 1-50.36032 16.44544l-29.83936-7.22944 15.95392 157.88032 125.952 37.13024 80.46592-271.99488z"  horiz-adv-x="1024" />

    
    <glyph glyph-name="liquor-store" unicode="&#59040;" d="M286.72 568.32c61.44-20.48 102.4-72.66304 102.4-141.47584v-528.73216c0-16.26112 16.44544-26.112-0.34816-26.112H85.64736C68.89472-128 61.44-118.14912 61.44-101.90848V426.84416C61.44 495.8208 102.4 552.87808 163.84 568.32V814.08h122.88v-245.76zM163.84 896h122.88v-40.96H163.84z m558.1824-97.9968c-9.35936 1.3312-16.54784 8.92928-16.54784 18.08384 0 6.69696 4.01408 12.53376 9.85088 15.85152-5.8368 3.072-9.85088 13.88544-9.85088 20.64384 0 10.15808 8.56064 22.9376 19.16928 22.9376h95.92832c10.67008 0 19.16928-12.77952 19.16928-22.91712 0-7.0656-3.9936-15.29856-10.07616-18.26816a20.15232 20.15232 0 0 0 10.07616-17.05984 18.86208 18.86208 0 0 0-16.24064-18.57536l122.1632-299.008c7.168-19.43552 16.896-41.28768 16.896-62.75072V-87.04c0-19.98848 0.53248-40.96-20.48-40.96H633.05728C611.71712-128 614.4-107.02848 614.4-87.04V445.44c0 21.44256 3.9936 34.52928 11.20256 53.98528l96.41984 298.57792z"  horiz-adv-x="1024" />

    
    <glyph glyph-name="postal-code" unicode="&#59041;" d="M512 896c-169.65632 0-307.2-136.31488-307.2-304.45568 0-168.16128 307.2-719.5648 307.2-719.5648s307.2 551.40352 307.2 719.5648C819.2 759.68512 681.65632 896 512 896z m-1.00352-395.50976c-52.36736 0-94.80192 42.0864-94.80192 93.96224 0 51.9168 42.43456 93.98272 94.80192 93.98272 52.40832 0 94.84288-42.06592 94.84288-93.98272 0-51.87584-42.43456-93.96224-94.84288-93.96224z"  horiz-adv-x="1024" />

    
    <glyph glyph-name="fishing-pier" unicode="&#59042;" d="M513.55648 741.25312a65.39264 65.39264 0 0 1 65.59744 65.41312c0 35.9424-29.2864 65.39264-65.59744 65.39264s-65.59744-29.45024-65.59744-65.39264a65.41312 65.41312 0 0 1 65.59744-65.41312z m411.40224-749.73184a142.0288 142.0288 0 0 1-59.76064 13.29152 143.72864 143.72864 0 0 1-59.76064-13.29152c-17.55136-7.72096-37.23264-12.3904-57.83552-12.3904s-40.52992 4.68992-58.12224 12.3904c-18.04288 8.3968-38.4 13.29152-59.71968 13.29152s-41.71776-4.89472-59.76064-13.29152a145.98144 145.98144 0 0 0-58.08128-12.3904 146.37056 146.37056 0 0 0-58.10176 12.3904 141.78304 141.78304 0 0 1-59.74016 13.29152 143.48288 143.48288 0 0 1-59.74016-13.29152 143.6672 143.6672 0 0 0-57.69216-12.3904 145.6128 145.6128 0 0 0-58.10176 12.3904c-18.04288 8.3968-38.42048 13.29152-59.74016 13.29152s-41.69728-4.89472-59.74016-13.29152A146.0224 146.0224 0 0 0 40.96-20.8896V-107.52a142.25408 142.25408 0 0 1 58.10176 12.3904c18.04288 8.3968 38.42048 13.29152 59.74016 13.29152s41.69728-4.89472 59.74016-13.29152a141.45536 141.45536 0 0 1 115.79392 0 143.42144 143.42144 0 0 0 59.74016 13.29152c21.31968 0 41.69728-4.89472 59.74016-13.29152a142.25408 142.25408 0 0 1 116.18304 0c18.04288 8.3968 38.44096 13.29152 59.76064 13.29152s41.6768-4.89472 59.71968-13.29152c17.59232-7.94624 37.51936-12.3904 58.12224-12.3904s40.28416 4.44416 57.83552 12.3904a143.72864 143.72864 0 0 0 59.76064 13.29152c21.31968 0 41.6768-4.89472 59.76064-13.29152 17.75616-7.94624 37.4784-12.3904 58.08128-12.3904v86.6304a145.85856 145.85856 0 0 0-58.08128 12.41088z m5.40672 883.11808c-4.7104 1.86368-11.83744 0.7168-15.60576-2.80576L674.79552 630.25152c-3.74784 1.6384-8.72448-0.49152-13.18912-0.49152h-90.64448c-15.48288 20.48-97.46432 100.47488-97.46432 100.47488-4.1984 4.21888-9.60512 8.0896-14.99136 9.48224-18.7392 16.36352-47.08352 16.896-65.1264-1.08544l-140.24704-140.6976c-5.38624-5.36576-7.3728-12.45184-7.3728-20.39808V486.4H40.96v-40.96h204.8v-235.99104c0-29.20448 21.87264-52.79744 51.05664-52.79744 28.99968 0 51.34336 23.59296 51.34336 52.79744V445.44h143.36v-307.2H40.96v-61.44h491.52V445.44h61.44v40.96H348.16v16.87552l132.608 131.70688 54.12864-55.52128c5.81632-6.06208 14.25408-11.14112 22.9376-11.14112h103.75168c17.85856 0 34.73408 2.72384 34.73408 20.48 0 4.21888 1.35168 16.73216 0 20.48 56.68864 56.5248 204.8 195.52256 225.28 223.78496V76.8h20.48V862.96576c0 5.14048-7.04512 9.56416-11.71456 11.6736z"  horiz-adv-x="1024" />

    
    <glyph glyph-name="fullscreen1" unicode="&#59044;" d="M40.96 573.27616V855.04h292.84352l107.76576-81.92h-179.58912L450.56 573.27616 333.80352 465.92 143.36 645.09952v-179.58912zM691.24096 855.04H983.04v-282.80832l-81.92-107.74528v179.56864L696.25856 455.4752l-109.85472 111.73888L763.06432 752.64H583.4752zM983.04 204.75904V-87.04H690.19648l-107.76576 81.92h179.58912L573.44 199.74144l116.75648 109.85472L880.64 132.93568V312.5248zM332.75904-87.04H40.96V205.80352l81.92 107.76576v-179.58912L327.74144 322.56l109.85472-116.75648L260.93568 15.36h179.58912z"  horiz-adv-x="1024" />

    
    <glyph glyph-name="school" unicode="&#59045;" d="M614.4 732.16v-675.84H122.88V732.16h491.52m81.92 81.92H40.96v-860.16h655.36V814.08zM184.32 650.24h368.64v-81.92H184.32z m0-143.36h368.64v-81.92H184.32z m0-143.36h368.64v-81.92H184.32z m0-143.36h368.64v-81.92H184.32z m634.88 430.08h163.84v-573.44h-163.84z m82.04288 225.28C856.30976 875.52 819.2 839.3728 819.2 794.89024V711.68h163.84V794.89024C983.04 839.3728 945.99168 875.52 901.24288 875.52z m-83.31264-860.16l82.75968-130.80576L983.04 15.36z"  horiz-adv-x="1024" />

    
    <glyph glyph-name="city-hall" unicode="&#59048;" d="M158.57664 449.536h71.3728v-458.752h107.08992V384h107.08992v-393.216h107.06944V384h107.1104v-393.216h107.08992V449.536h71.35232c19.72224 0 35.71712 14.66368 35.71712 32.768 0 10.93632-5.89824 20.56192-14.88896 26.50112l0.06144 0.06144-0.53248 0.3072-0.9216 0.55296-340.6848 176.31232V737.6896c62.91456-28.91776 114.70848 20.8896 196.3008-9.05216V842.73152c-81.63328 29.94176-133.40672-19.82464-196.3008 9.07264V859.136c0 9.07264-7.96672 16.384-17.83808 16.384s-17.8176-7.31136-17.8176-16.384v-173.09696L139.1616 509.76768l-0.9216-0.55296-0.512-0.34816v-0.06144c-8.94976-5.9392-14.82752-15.58528-14.82752-26.50112-0.02048-18.10432 15.9744-32.768 35.67616-32.768z m35.67616-491.54048L122.88-107.52h749.60896l-71.41376 65.51552z"  horiz-adv-x="1024" />

    
    <glyph glyph-name="expand" unicode="&#59049;" d="M40.96 573.27616V855.04h292.84352l107.76576-81.92h-179.58912L450.56 573.27616 333.80352 465.92 143.36 645.09952v-179.58912z m942.08-368.51712V-87.04H690.19648l-107.76576 81.92h179.58912L573.44 199.74144l116.75648 109.85472L880.64 132.93568V312.5248z"  horiz-adv-x="1024" />

    
    <glyph glyph-name="male" unicode="&#59050;" d="M368.64-66.56c0-25.25184 15.72864-40.96 40.96-40.96 25.2928 0 40.96 15.70816 40.96 40.96V322.56h40.96v-389.12c0-25.21088 15.70816-40.96 40.96-40.96s40.96 15.70816 40.96 40.96V588.8h20.48v-241.95072c0-49.0496 61.56288-49.0496 61.44 0V595.74272C655.36 649.9328 616.32512 691.2 552.96 691.2h-163.84c-57.7536 0-102.4-35.20512-102.4-93.94176V343.04c0-40.96 61.44-40.96 61.44 0V588.8h20.48v-655.36zM468.48 801.28m-84.48 0a84.48 84.48 0 1 1 168.96 0 84.48 84.48 0 1 1-168.96 0Z"  horiz-adv-x="1024" />

    
    <glyph glyph-name="electrician" unicode="&#59051;" d="M839.68 609.28h-102.4V836.21888C737.28 857.92768 718.9504 875.52 696.32 875.52s-40.96-17.59232-40.96-39.30112V609.28H327.68V836.21888C327.68 857.92768 309.3504 875.52 286.69952 875.52 264.06912 875.52 245.76 857.92768 245.76 836.21888V609.28H143.36c-11.32544 0-20.48-17.79712-20.48-28.65152V482.304c0-117.94432 204.8-254.89408 204.8-444.33408V-25.6h81.92v-81.92h163.84v81.92h81.92v63.56992c0 189.44 204.8 326.41024 204.8 444.33408v98.32448c0 10.8544-9.15456 28.65152-20.48 28.65152M469.13536 273.65376c1.3312 4.3008-1.37216 7.94624-6.06208 7.94624h-79.5648c-4.7104 0-6.0416 2.6624-3.05152 6.12352 0 0 163.9424 208.05632 167.13728 212.0704 2.41664 3.80928 5.07904 2.47808 4.23936-1.90464-1.26976-5.55008-36.27008-147.49696-36.27008-147.49696-1.69984-4.17792 0.75776-7.35232 5.40672-7.35232h79.60576c4.68992 0 6.18496-3.15392 3.31776-6.71744 0 0-164.18816-213.03296-167.13728-216.59648-2.9696-3.56352-5.71392-2.47808-4.21888 3.584l36.59776 150.34368"  horiz-adv-x="1024" />

    
    <glyph glyph-name="ice-fishing" unicode="&#59052;" d="M1003.52-74.6496c-225.28-3.29728-468.992 40.79616-655.23712 189.44l1.51552 4.28032c0 3.29728 4.46464 6.144 8.02816 6.144l183.93088-0.24576c9.07264 0 16.65024 7.12704 16.65024 16.13824 0 6.61504-2.92864 11.14112-9.80992 14.70464l-165.66272 78.70464a10.21952 10.21952 0 0 0-5.18144 9.23648c0 3.09248-5.16096 5.69344-3.25632 7.59808 0 0 198.92224 177.5616 629.00224 173.52704v-499.52768zM627.48672 206.56128a39.23968 39.23968 0 0 1 39.36256 39.07584c0 21.6064-17.63328 38.912-39.36256 38.912-21.48352 0-39.1168-17.32608-39.1168-38.912 0-21.54496 17.63328-39.07584 39.1168-39.07584zM20.48 855.04h184.32v-143.36H20.48z m368.64 0h614.4v-143.36H389.12z m-102.4-215.04c-20.48-4.97664-26.60352-19.68128-26.60352-36.72064 0-17.08032 6.12352-31.78496 26.60352-37.23264v-240.64c0-31.04768-29.53216-55.93088-60.78464-55.93088-31.00672 0-58.368 24.90368-58.368 55.93088 0 7.5776 0.26624 14.92992 3.13344 21.58592l1.80224-1.90464 19.51744-18.04288-12.55424 109.79328-32.27648-73.99424c-9.76896-22.75328-7.43424-37.43744-7.43424-37.43744 0-44.81024 38.56384-81.32608 83.64032-81.32608 45.32224 0 83.7632 36.51584 83.7632 81.32608V566.51776c20.48 5.46816 26.23488 19.90656 26.23488 36.7616 0 17.05984-5.75488 31.76448-26.23488 37.19168V855.04h-20.48v-215.04z"  horiz-adv-x="1024" />

    
    <glyph glyph-name="low-vision-access" unicode="&#59054;" d="M453.26336 808.71424c0.45056 42.10688-34.16064 76.96384-76.36992 76.51328-43.13088 0.45056-77.98784-34.4064-77.76256-76.51328-0.22528-43.1104 34.63168-77.63968 77.76256-77.74208a76.71808 76.71808 0 0 1 76.36992 77.74208z m222.04416-422.5024L428.27776 685.89568c-12.84096 19.0464-84.41856 27.05408-114.688 2.74432L193.39264 469.93408l29.57312-184.87296c30.06464-48.27136 89.7024 0.57344 72.94976 26.95168l-20.1728 130.9696L327.68 547.84v-245.76l-122.88-327.68c-21.34016-71.55712 81.28512-109.8752 102.4-40.96l143.36 368.64v184.32l-60.14976 83.18976a8.54016 8.54016 0 0 0 13.08672 11.01824l205.49632-243.01568c33.0752-45.19936 99.34848 2.8672 66.31424 48.61952zM580.79232-29.4912l-121.344 301.93664L409.6 138.24l71.20896-208.26112c28.65152-67.072 129.35168-27.83232 99.98336 40.52992z m321.80224-69.28384l0.45056-0.69632c4.8128-5.7344 13.312-6.30784 19.0464-1.59744a13.80352 13.80352 0 0 1 2.51904 17.53088L695.93088 313.50784l-0.67584 0.79872a13.35296 13.35296 0 0 1-18.82112 1.49504c-5.03808-4.36224-5.50912-11.69408-2.27328-17.53088l228.43392-397.04576z"  horiz-adv-x="1024" />

    
    <glyph glyph-name="sledding" unicode="&#59056;" d="M880.08704 210.24768c51.54816 0 93.45024 43.39712 93.45024 97.03424 0 53.3504-41.92256 96.54272-93.45024 96.54272-51.79392 0-93.4912-43.17184-93.4912-96.54272-0.02048-53.63712 41.6768-97.03424 93.4912-97.03424z m71.72096-216.41216c4.1984-1.47456 6.18496-2.19136 10.8544-2.19136 23.92064 0 42.10688 20.11136 42.10688 44.87168 0 18.67776-11.81696 34.9184-27.56608 41.472l-129.6384 52.16256-94.3104 173.24032s-7.82336 19.12832-35.00032 29.5936L409.3952 461.08672l-183.52128 321.9456C215.20384 801.46432 195.62496 814.08 173.13792 814.08 139.1616 814.08 111.73888 785.46944 111.73888 750.2848c0-11.1616 2.82624-21.6064 7.74144-30.8224l227.84-400.05632-144.44544 59.67872-36.31104-24.41216L743.69024 117.76h-0.24576l23.6544-37.00736s9.35936-19.92704 37.2736-31.31392l71.68-28.42624c-46.63296-48.27136-112.00512-27.21792-112.00512-27.21792L59.37152 287.00672 20.48 263.0656l740.84352-301.28128C846.848-70.49216 921.6 6.92224 921.6 6.92224v-0.24576l30.208-12.84096z"  horiz-adv-x="1024" />

    
    </font>
</defs>
</svg>
